<svg width="1775" height="453" fill="none" xmlns="http://www.w3.org/2000/svg"><g filter="url(#filter0_d)"><g filter="url(#filter1_d)"><rect x="491.974" y="70" width="371.344" height="233" rx="24.271" fill="url(#paint0_angular)"/><path d="M740.75 207.737a61.283 61.283 0 00-90.173-54.048 61.29 61.29 0 00-29.756 71.838 61.288 61.288 0 0064.652 43.199 61.281 61.281 0 0037.327-17.655l-21.436-21.436a30.966 30.966 0 01-39.103 3.851 30.968 30.968 0 1148.173-25.749h30.316z" fill="#fff" fill-opacity=".3"/><path d="M815.99 234.435a52.79 52.79 0 10-15.462 37.328l-12.978-12.979a34.432 34.432 0 01-43.48 4.283 34.432 34.432 0 0125.849-62.405 34.434 34.434 0 0127.717 33.773h18.354zM661.87 186.5a67.957 67.957 0 00-54.701-66.653 67.957 67.957 0 00-78.29 86.38 67.957 67.957 0 0071.694 47.904 67.96 67.96 0 0041.392-19.577l-15.45-15.451a46.105 46.105 0 01-58.22 5.735 46.107 46.107 0 01-16.982-55.983 46.105 46.105 0 0151.594-27.578A46.11 46.11 0 01640.02 186.5h21.85z" fill="#FFB938" fill-opacity=".3"/><path d="M529.282 201.571h-7.318v4.347c.306-.408.757-.75 1.354-1.027a4.661 4.661 0 011.945-.415c1.223 0 2.213.262 2.97.786.772.524 1.318 1.187 1.639 1.988.335.801.502 1.646.502 2.534 0 1.077-.211 2.039-.633 2.883a4.558 4.558 0 01-1.857 1.966c-.816.481-1.82.721-3.015.721-1.587 0-2.861-.393-3.822-1.18-.961-.786-1.537-1.827-1.726-3.123h2.425c.16.684.517 1.23 1.07 1.638.553.393 1.245.59 2.075.59 1.034 0 1.806-.313 2.316-.939.524-.627.786-1.457.786-2.491 0-1.048-.262-1.849-.786-2.402-.525-.568-1.296-.852-2.316-.852-.713 0-1.318.182-1.813.546-.48.349-.83.83-1.048 1.441h-2.359v-9.196h9.611v2.185zm20.002 1.551c-.161-.67-.452-1.173-.874-1.508-.423-.335-1.012-.502-1.77-.502-1.15 0-2.009.444-2.577 1.332-.568.874-.867 2.33-.896 4.369.379-.641.932-1.136 1.66-1.485a5.38 5.38 0 012.36-.525c.961 0 1.805.212 2.533.634a4.19 4.19 0 011.726 1.791c.422.787.634 1.726.634 2.818 0 1.019-.204 1.93-.612 2.73a4.453 4.453 0 01-1.769 1.901c-.787.451-1.733.677-2.84.677-1.5 0-2.68-.328-3.539-.983-.844-.67-1.441-1.609-1.791-2.818-.335-1.208-.502-2.716-.502-4.521 0-5.33 1.878-7.995 5.635-7.995 1.457 0 2.6.393 3.43 1.179a4.652 4.652 0 011.485 2.906h-2.293zm-2.644 3.778c-.888 0-1.645.27-2.271.809-.612.524-.918 1.288-.918 2.293 0 1.005.284 1.806.852 2.403.583.583 1.391.874 2.425.874.917 0 1.638-.284 2.162-.852.539-.568.809-1.325.809-2.272 0-.99-.263-1.776-.787-2.359-.509-.597-1.267-.896-2.272-.896zm18.537.132c-1.514-.758-2.272-1.952-2.272-3.583 0-.786.197-1.507.59-2.162.393-.656.983-1.173 1.769-1.551.787-.393 1.748-.59 2.884-.59 1.121 0 2.075.197 2.861.59.801.378 1.398.895 1.792 1.551.393.655.589 1.376.589 2.162 0 .816-.211 1.537-.633 2.163a4.096 4.096 0 01-1.638 1.42c.83.305 1.485.808 1.966 1.507.48.684.72 1.492.72 2.424 0 .947-.24 1.784-.72 2.512-.481.729-1.151 1.289-2.01 1.682-.859.394-1.835.59-2.927.59s-2.068-.196-2.927-.59c-.845-.393-1.507-.953-1.988-1.682-.481-.728-.721-1.565-.721-2.512 0-.946.24-1.762.721-2.446a4.046 4.046 0 011.944-1.485zm5.832-3.277c0-.816-.254-1.442-.764-1.879-.51-.436-1.209-.655-2.097-.655-.874 0-1.566.219-2.075.655-.51.437-.765 1.071-.765 1.901 0 .728.262 1.325.787 1.791.538.451 1.223.677 2.053.677.83 0 1.514-.233 2.053-.699.539-.466.808-1.063.808-1.791zm-2.861 4.369c-.961 0-1.748.24-2.359.721-.597.466-.896 1.143-.896 2.031 0 .83.291 1.507.874 2.032.582.509 1.376.764 2.381.764.99 0 1.769-.262 2.337-.786.583-.525.874-1.194.874-2.01 0-.874-.299-1.551-.896-2.031-.582-.481-1.354-.721-2.315-.721zm32.142-1.092c-1.514-.758-2.272-1.952-2.272-3.583 0-.786.197-1.507.59-2.162.393-.656.983-1.173 1.769-1.551.787-.393 1.748-.59 2.884-.59 1.121 0 2.075.197 2.861.59.801.378 1.398.895 1.792 1.551.393.655.589 1.376.589 2.162 0 .816-.211 1.537-.633 2.163a4.096 4.096 0 01-1.638 1.42c.83.305 1.485.808 1.966 1.507.48.684.72 1.492.72 2.424 0 .947-.24 1.784-.72 2.512-.481.729-1.151 1.289-2.01 1.682-.859.394-1.835.59-2.927.59s-2.068-.196-2.927-.59c-.845-.393-1.507-.953-1.988-1.682-.481-.728-.721-1.565-.721-2.512 0-.946.24-1.762.721-2.446a4.046 4.046 0 011.944-1.485zm5.832-3.277c0-.816-.254-1.442-.764-1.879-.51-.436-1.209-.655-2.097-.655-.874 0-1.566.219-2.075.655-.51.437-.765 1.071-.765 1.901 0 .728.262 1.325.787 1.791.538.451 1.223.677 2.053.677.83 0 1.514-.233 2.053-.699.539-.466.808-1.063.808-1.791zm-2.861 4.369c-.961 0-1.748.24-2.359.721-.597.466-.896 1.143-.896 2.031 0 .83.291 1.507.874 2.032.582.509 1.376.764 2.381.764.99 0 1.769-.262 2.337-.786.583-.525.874-1.194.874-2.01 0-.874-.299-1.551-.896-2.031-.582-.481-1.354-.721-2.315-.721zm24.589-5.002c-.16-.67-.451-1.173-.874-1.508-.422-.335-1.012-.502-1.769-.502-1.15 0-2.009.444-2.577 1.332-.568.874-.867 2.33-.896 4.369.379-.641.932-1.136 1.66-1.485a5.375 5.375 0 012.359-.525c.961 0 1.806.212 2.534.634a4.19 4.19 0 011.726 1.791c.422.787.633 1.726.633 2.818 0 1.019-.204 1.93-.611 2.73a4.456 4.456 0 01-1.77 1.901c-.786.451-1.733.677-2.839.677-1.5 0-2.68-.328-3.539-.983-.845-.67-1.442-1.609-1.791-2.818-.335-1.208-.503-2.716-.503-4.521 0-5.33 1.879-7.995 5.636-7.995 1.456 0 2.599.393 3.429 1.179a4.654 4.654 0 011.486 2.906h-2.294zm-2.643 3.778c-.888 0-1.645.27-2.272.809-.611.524-.917 1.288-.917 2.293 0 1.005.284 1.806.852 2.403.582.583 1.391.874 2.425.874.917 0 1.638-.284 2.162-.852.539-.568.808-1.325.808-2.272 0-.99-.262-1.776-.786-2.359-.51-.597-1.267-.896-2.272-.896zm26.117-5.329h-7.318v4.347c.306-.408.757-.75 1.354-1.027a4.66 4.66 0 011.944-.415c1.224 0 2.214.262 2.971.786.772.524 1.318 1.187 1.638 1.988.335.801.503 1.646.503 2.534 0 1.077-.211 2.039-.634 2.883a4.55 4.55 0 01-1.856 1.966c-.816.481-1.821.721-3.015.721-1.587 0-2.861-.393-3.823-1.18-.961-.786-1.536-1.827-1.725-3.123h2.424a2.75 2.75 0 001.071 1.638c.553.393 1.245.59 2.075.59 1.034 0 1.806-.313 2.315-.939.525-.627.787-1.457.787-2.491 0-1.048-.262-1.849-.787-2.402-.524-.568-1.296-.852-2.315-.852-.714 0-1.318.182-1.813.546-.481.349-.83.83-1.049 1.441h-2.359v-9.196h9.612v2.185zm11.133 10.463v-1.879l7.339-10.528h3.015v10.244h2.031v2.163h-2.031v3.32h-2.447v-3.32h-7.907zm8.016-9.874l-5.155 7.711h5.155v-7.711zm37.882-.589h-7.317v4.347c.306-.408.757-.75 1.354-1.027a4.66 4.66 0 011.944-.415c1.223 0 2.214.262 2.971.786.772.524 1.318 1.187 1.638 1.988.335.801.503 1.646.503 2.534 0 1.077-.212 2.039-.634 2.883a4.558 4.558 0 01-1.857 1.966c-.815.481-1.82.721-3.014.721-1.587 0-2.862-.393-3.823-1.18-.961-.786-1.536-1.827-1.725-3.123h2.424c.16.684.517 1.23 1.071 1.638.553.393 1.245.59 2.075.59 1.034 0 1.806-.313 2.315-.939.524-.627.787-1.457.787-2.491 0-1.048-.263-1.849-.787-2.402-.524-.568-1.296-.852-2.315-.852-.714 0-1.318.182-1.813.546-.481.349-.83.83-1.049 1.441h-2.359v-9.196h9.611v2.185zm20.002 1.551c-.16-.67-.451-1.173-.874-1.508-.422-.335-1.012-.502-1.769-.502-1.15 0-2.01.444-2.578 1.332-.568.874-.866 2.33-.895 4.369.378-.641.932-1.136 1.66-1.485a5.372 5.372 0 012.359-.525c.961 0 1.806.212 2.534.634a4.19 4.19 0 011.726 1.791c.422.787.633 1.726.633 2.818 0 1.019-.204 1.93-.612 2.73a4.453 4.453 0 01-1.769 1.901c-.786.451-1.733.677-2.84.677-1.5 0-2.679-.328-3.538-.983-.845-.67-1.442-1.609-1.791-2.818-.335-1.208-.503-2.716-.503-4.521 0-5.33 1.879-7.995 5.636-7.995 1.456 0 2.599.393 3.429 1.179a4.654 4.654 0 011.486 2.906h-2.294zm-2.643 3.778c-.888 0-1.646.27-2.272.809-.611.524-.917 1.288-.917 2.293 0 1.005.284 1.806.852 2.403.582.583 1.39.874 2.424.874.918 0 1.639-.284 2.163-.852.539-.568.808-1.325.808-2.272 0-.99-.262-1.776-.786-2.359-.51-.597-1.267-.896-2.272-.896zm25.942-5.548l-6.073 14.002h-2.512l6.138-13.74h-8.082v-2.119h10.529v1.857zm19.977 0l-6.072 14.002h-2.512l6.138-13.74h-8.082v-2.119h10.528v1.857zm26.002 5.68c-1.515-.758-2.272-1.952-2.272-3.583 0-.786.197-1.507.59-2.162.393-.656.983-1.173 1.769-1.551.786-.393 1.748-.59 2.883-.59 1.122 0 2.076.197 2.862.59.801.378 1.398.895 1.791 1.551.393.655.59 1.376.59 2.162 0 .816-.211 1.537-.634 2.163a4.083 4.083 0 01-1.638 1.42c.83.305 1.486.808 1.966 1.507.481.684.721 1.492.721 2.424 0 .947-.24 1.784-.721 2.512-.48.729-1.15 1.289-2.009 1.682-.86.394-1.835.59-2.928.59-1.092 0-2.067-.196-2.927-.59-.844-.393-1.507-.953-1.987-1.682-.481-.728-.721-1.565-.721-2.512 0-.946.24-1.762.721-2.446a4.037 4.037 0 011.944-1.485zm5.832-3.277c0-.816-.255-1.442-.765-1.879-.509-.436-1.208-.655-2.097-.655-.873 0-1.565.219-2.075.655-.509.437-.764 1.071-.764 1.901 0 .728.262 1.325.786 1.791.539.451 1.223.677 2.053.677.831 0 1.515-.233 2.054-.699.539-.466.808-1.063.808-1.791zm-2.862 4.369c-.961 0-1.747.24-2.359.721-.597.466-.895 1.143-.895 2.031 0 .83.291 1.507.873 2.032.583.509 1.377.764 2.381.764.991 0 1.77-.262 2.338-.786.582-.525.873-1.194.873-2.01 0-.874-.298-1.551-.895-2.031-.583-.481-1.354-.721-2.316-.721zm19.129 2.905c.146.728.459 1.281.939 1.66.481.379 1.129.568 1.944.568 1.034 0 1.791-.408 2.272-1.223.481-.816.721-2.206.721-4.172-.35.495-.845.881-1.485 1.157a5.273 5.273 0 01-2.054.394c-.946 0-1.806-.19-2.577-.568a4.458 4.458 0 01-1.835-1.726c-.437-.772-.656-1.704-.656-2.796 0-1.602.466-2.876 1.398-3.823.947-.961 2.243-1.441 3.889-1.441 1.98 0 3.385.662 4.215 1.987.845 1.311 1.267 3.328 1.267 6.051 0 1.879-.16 3.415-.48 4.609-.306 1.194-.845 2.097-1.617 2.709-.771.611-1.842.917-3.211.917-1.558 0-2.759-.408-3.604-1.223-.844-.816-1.318-1.842-1.42-3.08h2.294zm2.774-3.713c.874 0 1.558-.27 2.053-.809.51-.553.765-1.281.765-2.184 0-1.005-.269-1.784-.808-2.337-.525-.568-1.245-.852-2.163-.852-.917 0-1.645.291-2.184.873-.524.568-.787 1.318-.787 2.25 0 .889.255 1.624.765 2.207.524.568 1.311.852 2.359.852zm15.744-.132c0-2.519.423-4.485 1.267-5.897.859-1.427 2.33-2.141 4.413-2.141 2.082 0 3.546.714 4.39 2.141.859 1.412 1.289 3.378 1.289 5.897 0 2.549-.43 4.544-1.289 5.986-.844 1.427-2.308 2.14-4.39 2.14-2.083 0-3.554-.713-4.413-2.14-.844-1.442-1.267-3.437-1.267-5.986zm8.913 0c0-1.179-.081-2.177-.241-2.992-.145-.816-.451-1.478-.917-1.988-.466-.524-1.158-.786-2.075-.786-.918 0-1.609.262-2.075.786-.466.51-.78 1.172-.94 1.988-.145.815-.218 1.813-.218 2.992 0 1.224.073 2.25.218 3.08.146.83.452 1.5.918 2.01.48.51 1.179.765 2.097.765.917 0 1.609-.255 2.075-.765.48-.51.793-1.18.939-2.01.146-.83.219-1.856.219-3.08z" fill="#fff"/><rect x="522.312" y="102.766" width="47.328" height="31.552" rx="6.068" fill="#fff" fill-opacity=".39"/><path stroke="#fff" stroke-opacity=".7" stroke-width="1.214" d="M530.201 102.766v31.552m10.921-31.552v31.552m10.922-31.552v31.552m9.708-31.552v31.552"/><circle cx="822.057" cy="115.508" r="18.81" fill="#FFB938"/><circle cx="803.247" cy="115.508" r="18.81" fill="#EA2828"/><path d="M533.56 269.77a5.46 5.46 0 01-.728 2.738c-.466.854-1.165 1.572-2.097 2.155-.913.582-2 .932-3.262 1.048v2.359h-1.893v-2.359c-1.825-.174-3.301-.747-4.427-1.718-1.126-.971-1.689-2.252-1.689-3.845h3.553c.058.758.301 1.389.728 1.894.427.485 1.039.796 1.835.932v-6.408c-1.301-.33-2.359-.66-3.175-.99a5.326 5.326 0 01-2.097-1.631c-.563-.738-.844-1.748-.844-3.029 0-1.612.563-2.942 1.689-3.99 1.126-1.068 2.602-1.69 4.427-1.864v-2.359h1.893v2.359c1.709.155 3.077.699 4.107 1.631 1.048.912 1.64 2.174 1.776 3.786h-3.553a2.784 2.784 0 00-.699-1.602c-.408-.485-.951-.815-1.631-.99v6.291c1.301.311 2.359.641 3.175.99.815.33 1.504.864 2.067 1.602.564.718.845 1.718.845 3zm-10.718-9.029c0 .796.233 1.418.699 1.864.485.447 1.165.806 2.039 1.078v-5.884c-.835.098-1.505.399-2.01.903-.485.505-.728 1.185-.728 2.039zm4.631 12.233c.854-.136 1.524-.476 2.01-1.02.485-.563.728-1.233.728-2.009 0-.777-.243-1.379-.728-1.806-.466-.447-1.136-.806-2.01-1.078v5.913zm20.865-1.864v-2.505l9.786-14.038h4.019v13.659h2.709v2.884h-2.709v4.427h-3.262v-4.427h-10.543zm10.689-13.165l-6.874 10.281h6.874v-10.281zm8.518 1.602c.116-1.806.805-3.213 2.068-4.223 1.281-1.01 2.912-1.515 4.893-1.515 1.359 0 2.533.243 3.524.728.99.486 1.737 1.146 2.242 1.981.505.835.758 1.777.758 2.825 0 1.204-.321 2.233-.962 3.087-.64.855-1.407 1.427-2.3 1.719v.116c1.145.35 2.038.99 2.679 1.922.641.913.961 2.088.961 3.525 0 1.145-.262 2.165-.786 3.058-.524.893-1.301 1.602-2.33 2.126-1.029.505-2.262.757-3.699.757-2.097 0-3.825-.534-5.184-1.602-1.34-1.087-2.059-2.64-2.156-4.66h3.204c.078 1.029.476 1.874 1.194 2.534.719.641 1.69.961 2.913.961 1.184 0 2.097-.32 2.738-.961.64-.66.961-1.505.961-2.534 0-1.359-.437-2.32-1.311-2.883-.854-.583-2.175-.874-3.961-.874h-.757v-2.738h.786c1.573-.019 2.767-.281 3.583-.786.834-.505 1.252-1.301 1.252-2.388 0-.932-.301-1.67-.903-2.214-.602-.563-1.456-.844-2.563-.844-1.087 0-1.932.281-2.534.844a3.288 3.288 0 00-1.077 2.039h-3.233zm21.428 11.999l-3.524 8.039h-2.155l2.068-8.039h3.611zm2.057-.436v-2.505l9.786-14.038h4.019v13.659h2.709v2.884h-2.709v4.427h-3.262v-4.427H591.03zm10.689-13.165l-6.874 10.281h6.874v-10.281zm22.265-.786h-9.757v5.796c.408-.544 1.009-1 1.806-1.369a6.212 6.212 0 012.592-.554c1.631 0 2.951.35 3.961 1.049 1.029.699 1.757 1.582 2.184 2.65a8.662 8.662 0 01.67 3.379c0 1.437-.282 2.718-.845 3.844-.543 1.107-1.369 1.981-2.475 2.621-1.088.641-2.427.962-4.02.962-2.116 0-3.815-.525-5.096-1.573-1.282-1.049-2.049-2.437-2.301-4.165h3.233c.213.913.689 1.641 1.427 2.184.737.525 1.66.787 2.767.787 1.378 0 2.407-.418 3.087-1.253.699-.835 1.048-1.941 1.048-3.32 0-1.398-.349-2.466-1.048-3.204-.699-.757-1.728-1.136-3.087-1.136-.952 0-1.758.243-2.418.729-.641.466-1.107 1.106-1.398 1.922h-3.145v-12.262h12.815v2.913zm16.329 2.068c-.213-.894-.602-1.563-1.165-2.01-.563-.447-1.349-.67-2.359-.67-1.534 0-2.679.592-3.437 1.777-.757 1.165-1.155 3.106-1.194 5.825.505-.855 1.243-1.515 2.214-1.981a7.173 7.173 0 013.145-.699c1.282 0 2.408.282 3.379.845.99.544 1.757 1.34 2.301 2.388.563 1.049.844 2.301.844 3.757 0 1.359-.272 2.573-.815 3.641a5.947 5.947 0 01-2.359 2.534c-1.049.602-2.311.903-3.787.903-2 0-3.572-.437-4.718-1.311-1.126-.893-1.922-2.146-2.388-3.757-.447-1.612-.67-3.621-.67-6.029 0-7.107 2.505-10.66 7.514-10.66 1.942 0 3.466.524 4.573 1.573 1.126 1.048 1.786 2.34 1.98 3.874h-3.058zm-3.524 5.038c-1.184 0-2.194.359-3.029 1.078-.815.699-1.223 1.718-1.223 3.058 0 1.34.378 2.408 1.136 3.204.776.776 1.854 1.165 3.233 1.165 1.223 0 2.184-.379 2.883-1.136.718-.757 1.078-1.767 1.078-3.029 0-1.32-.35-2.369-1.049-3.146-.679-.796-1.689-1.194-3.029-1.194zm113.075-6.092c1.246 0 2.339.243 3.279.73a5.14 5.14 0 012.192 2.09c.521.895.782 1.937.782 3.126 0 1.189-.261 2.231-.782 3.126-.51.883-1.24 1.569-2.192 2.056-.94.487-2.033.73-3.279.73h-4.145v-11.858h4.145zm-.085 9.836c1.246 0 2.209-.339 2.889-1.019.679-.679 1.019-1.637 1.019-2.871 0-1.235-.34-2.197-1.019-2.888-.68-.703-1.643-1.054-2.889-1.054h-1.682v7.832h1.682zm18.737-2.888c0 .34-.023.646-.068.918h-6.881c.056.679.294 1.212.713 1.597s.935.577 1.546.577c.884 0 1.512-.379 1.886-1.138h2.566a4.334 4.334 0 01-1.563 2.243c-.771.577-1.716.866-2.838.866-.906 0-1.721-.198-2.446-.594a4.379 4.379 0 01-1.682-1.716c-.397-.737-.595-1.586-.595-2.549 0-.974.198-1.829.595-2.565a4.137 4.137 0 011.665-1.699c.713-.397 1.535-.595 2.463-.595.895 0 1.694.193 2.396.578a3.984 3.984 0 011.648 1.648c.396.702.595 1.512.595 2.429zm-2.464-.679c-.011-.612-.232-1.099-.663-1.461-.43-.374-.957-.561-1.58-.561-.589 0-1.087.181-1.495.544-.396.351-.64.843-.73 1.478h4.468zm8.447-2.447a3.42 3.42 0 011.257-1.104c.544-.283 1.161-.425 1.852-.425a4.07 4.07 0 012.175.595c.657.396 1.172.962 1.546 1.699.385.725.578 1.568.578 2.531 0 .963-.193 1.818-.578 2.566-.374.736-.889 1.308-1.546 1.716a3.996 3.996 0 01-2.175.611c-.702 0-1.319-.136-1.852-.408a3.674 3.674 0 01-1.257-1.087v1.342h-2.378v-12.572h2.378v4.536zm4.978 3.296c0-.566-.119-1.053-.357-1.461a2.32 2.32 0 00-.917-.951 2.403 2.403 0 00-1.223-.323c-.431 0-.839.113-1.224.34a2.479 2.479 0 00-.917.951c-.227.419-.34.912-.34 1.478s.113 1.059.34 1.478c.238.419.544.742.917.969.385.215.793.322 1.224.322.441 0 .849-.113 1.223-.339.385-.227.691-.55.917-.969.238-.419.357-.917.357-1.495zm7.233-5.793c-.419 0-.77-.131-1.053-.391a1.362 1.362 0 01-.408-1.002c0-.397.136-.725.408-.986a1.46 1.46 0 011.053-.408c.419 0 .765.136 1.036.408.284.261.425.589.425.986 0 .396-.141.73-.425 1.002-.271.26-.617.391-1.036.391zm1.172 1.121v9.412h-2.378v-9.412h2.378zm6.988 1.954v4.553c0 .317.074.549.221.697.159.136.419.203.782.203h1.104v2.005h-1.495c-2.005 0-3.007-.974-3.007-2.922v-4.536h-1.121v-1.954h1.121v-2.328h2.395v2.328h2.107v1.954h-2.107zm10.992 2.752c0-.974.199-1.823.595-2.548a4.171 4.171 0 011.648-1.699c.702-.408 1.506-.612 2.412-.612 1.167 0 2.13.295 2.889.884.77.577 1.285 1.393 1.546 2.446h-2.566a1.813 1.813 0 00-.696-.951c-.317-.238-.714-.357-1.189-.357-.68 0-1.218.249-1.615.747-.396.487-.594 1.184-.594 2.09 0 .895.198 1.591.594 2.09.397.487.935.73 1.615.73.962 0 1.591-.43 1.885-1.291h2.566c-.261 1.02-.776 1.829-1.546 2.43-.77.6-1.733.9-2.889.9-.906 0-1.71-.198-2.412-.594a4.33 4.33 0 01-1.648-1.699c-.396-.737-.595-1.592-.595-2.566zm12.09-.034c0-.951.186-1.795.56-2.531.385-.737.901-1.303 1.546-1.699a4.157 4.157 0 012.192-.595c.702 0 1.314.142 1.835.425.532.283.957.64 1.274 1.07v-1.342h2.395v9.412h-2.395v-1.376c-.306.442-.731.81-1.274 1.104-.533.284-1.15.425-1.852.425a4.05 4.05 0 01-2.175-.611c-.645-.408-1.161-.98-1.546-1.716-.374-.748-.56-1.603-.56-2.566zm7.407.034c0-.578-.113-1.07-.34-1.478a2.32 2.32 0 00-.917-.951 2.402 2.402 0 00-1.241-.34c-.441 0-.849.107-1.223.323a2.472 2.472 0 00-.917.951c-.227.408-.34.895-.34 1.461 0 .566.113 1.065.34 1.495.238.419.543.742.917.969a2.38 2.38 0 001.223.339c.442 0 .856-.107 1.241-.322a2.47 2.47 0 00.917-.952c.227-.419.34-.917.34-1.495zm8.966-3.245a3.368 3.368 0 011.189-1.172c.499-.283 1.065-.425 1.699-.425v2.498h-.628c-.748 0-1.314.175-1.699.526-.374.351-.561.963-.561 1.835v4.689h-2.379v-9.412h2.379v1.461zm5.747 3.211c0-.951.187-1.795.561-2.531.385-.737.906-1.303 1.563-1.699a4.157 4.157 0 012.192-.595 3.93 3.93 0 011.75.408c.555.26.996.611 1.325 1.053v-4.468h2.412v12.572h-2.412v-1.393a3.23 3.23 0 01-1.24 1.121c-.533.284-1.15.425-1.852.425a4.05 4.05 0 01-2.175-.611c-.657-.408-1.178-.98-1.563-1.716-.374-.748-.561-1.603-.561-2.566zm7.408.034c0-.578-.113-1.07-.34-1.478a2.32 2.32 0 00-.917-.951 2.402 2.402 0 00-1.241-.34c-.441 0-.849.107-1.223.323a2.472 2.472 0 00-.917.951c-.227.408-.34.895-.34 1.461 0 .566.113 1.065.34 1.495.238.419.543.742.917.969a2.38 2.38 0 001.223.339c.442 0 .856-.107 1.241-.322a2.47 2.47 0 00.917-.952c.227-.419.34-.917.34-1.495z" fill="#fff"/></g><g filter="url(#filter2_d)"><path d="M1406.18 174.031a61.297 61.297 0 0167.89-15.756 61.316 61.316 0 0128.4 22.928 61.303 61.303 0 0110.33 35.011 61.384 61.384 0 01-11.41 34.672 61.281 61.281 0 01-29.11 22.034 61.254 61.254 0 01-36.46 1.578 61.293 61.293 0 01-30.9-19.438l46.6-39.799-45.34-41.23z" fill="#fff" fill-opacity=".36"/><path d="M1541 239.424a60.424 60.424 0 0031.28 26.062 60.419 60.419 0 0072.37-25.288 60.457 60.457 0 008.25-39.871 60.436 60.436 0 00-56.42-51.909 60.432 60.432 0 00-39.05 11.527 60.387 60.387 0 00-22.87 33.682l24.19 6.254a35.426 35.426 0 0136.31-26.512 35.445 35.445 0 0133.09 30.441 35.488 35.488 0 01-4.83 23.381 35.449 35.449 0 01-42.45 14.829 35.452 35.452 0 01-18.34-15.284L1541 239.424z" fill="#fff"/><rect x="1283.2" y="70" width="371.344" height="233" rx="24.271" fill="url(#paint1_angular)"/><path d="M1348.42 269.961a61.286 61.286 0 01-33.67-14.108 61.29 61.29 0 013.44-96.496 61.303 61.303 0 0134.59-11.674 61.321 61.321 0 0135.09 10.061 61.29 61.29 0 0126.13 64.608l-59.8-13.402-5.78 61.011z" fill="#fff" fill-opacity=".23"/><rect x="1311.11" y="102.766" width="47.328" height="31.552" rx="6.068" fill="#fff" fill-opacity=".39"/><path stroke="#fff" stroke-opacity=".7" stroke-width="1.214" d="M1319 102.766v31.552m10.92-31.552v31.552m10.93-31.552v31.552m9.7-31.552v31.552"/><path d="M1524.53 102.301l2.71 16.164 8.44-16.164h4.34l-11.04 20.329h-4.95l-3.87-20.329h4.37zm24.67 3.175l-.94 5.271h6.85l-.56 3.146h-6.84l-.96 5.504h7.72l-.59 3.233h-11.82l3.61-20.358h11.8l-.56 3.204h-7.71zm22.81-3.175c2.07 0 3.65.476 4.72 1.427 1.06.932 1.6 2.155 1.6 3.67 0 .369-.03.748-.09 1.136-.23 1.32-.84 2.524-1.81 3.611-.95 1.068-2.23 1.816-3.84 2.243l3.41 8.242h-4.75l-3.03-7.922h-1.95l-1.4 7.922h-4.11l3.62-20.329h7.63zm2.04 6.32c.03-.349.05-.582.05-.699 0-.738-.23-1.31-.69-1.718-.47-.408-1.18-.612-2.13-.612h-3.41l-1.08 6.087h3.41c1.09 0 1.95-.271 2.59-.815.66-.544 1.08-1.291 1.26-2.243zm14.96-6.32l2.7 16.164 8.45-16.164h4.34l-11.04 20.329h-4.95l-3.87-20.329h4.37zm24.66 3.175l-.93 5.271h6.84l-.55 3.146h-6.84l-.96 5.504h7.71l-.58 3.233h-11.82l3.61-20.358h11.79l-.55 3.204h-7.72z" fill="url(#paint2_linear)"/><path d="M1325.92 269.77c0 .971-.24 1.883-.72 2.738-.47.854-1.17 1.572-2.1 2.155-.91.582-2 .932-3.26 1.048v2.359h-1.9v-2.359c-1.82-.174-3.3-.747-4.42-1.718-1.13-.971-1.69-2.252-1.69-3.845h3.55c.06.758.3 1.389.73 1.894.43.485 1.04.796 1.83.932v-6.408c-1.3-.33-2.35-.66-3.17-.99-.82-.35-1.51-.893-2.1-1.631-.56-.738-.84-1.748-.84-3.029 0-1.612.56-2.942 1.69-3.99 1.12-1.068 2.6-1.69 4.42-1.864v-2.359h1.9v2.359c1.71.155 3.07.699 4.1 1.631 1.05.912 1.64 2.174 1.78 3.786h-3.55a2.786 2.786 0 00-.7-1.602c-.41-.485-.95-.815-1.63-.99v6.291c1.3.311 2.36.641 3.17.99.82.33 1.51.864 2.07 1.602.56.718.84 1.718.84 3zm-10.71-9.029c0 .796.23 1.418.7 1.864.48.447 1.16.806 2.03 1.078v-5.884c-.83.098-1.5.399-2.01.903-.48.505-.72 1.185-.72 2.039zm4.63 12.233c.85-.136 1.52-.476 2.01-1.02.48-.563.73-1.233.73-2.009 0-.777-.25-1.379-.73-1.806-.47-.447-1.14-.806-2.01-1.078v5.913zm32.69-13.747c-.22-.894-.6-1.563-1.17-2.01-.56-.447-1.35-.67-2.36-.67-1.53 0-2.68.592-3.43 1.777-.76 1.165-1.16 3.106-1.2 5.825.51-.855 1.24-1.515 2.22-1.981a7.136 7.136 0 013.14-.699c1.28 0 2.41.282 3.38.845.99.544 1.76 1.34 2.3 2.388.56 1.049.84 2.301.84 3.757 0 1.359-.27 2.573-.81 3.641-.52 1.068-1.31 1.912-2.36 2.534-1.05.602-2.31.903-3.79.903-2 0-3.57-.437-4.71-1.311-1.13-.893-1.93-2.146-2.39-3.757-.45-1.612-.67-3.621-.67-6.029 0-7.107 2.5-10.66 7.51-10.66 1.94 0 3.47.524 4.57 1.573 1.13 1.048 1.79 2.34 1.99 3.874h-3.06zm-3.53 5.038c-1.18 0-2.19.359-3.03 1.078-.81.699-1.22 1.718-1.22 3.058 0 1.34.38 2.408 1.14 3.204.77.776 1.85 1.165 3.23 1.165 1.22 0 2.18-.379 2.88-1.136.72-.757 1.08-1.767 1.08-3.029 0-1.32-.35-2.369-1.05-3.146-.68-.796-1.69-1.194-3.03-1.194zm25.21 7.281l-3.52 8.039h-2.16l2.07-8.039h3.61zm2.06-.436v-2.505l9.79-14.038h4.02v13.659h2.7v2.884h-2.7v4.427h-3.27v-4.427h-10.54zm10.69-13.165l-6.87 10.281h6.87v-10.281zm22.26-.786h-9.75v5.796c.4-.544 1.01-1 1.8-1.369a6.23 6.23 0 012.59-.554c1.64 0 2.96.35 3.97 1.049 1.02.699 1.75 1.582 2.18 2.65.45 1.068.67 2.194.67 3.379 0 1.437-.28 2.718-.84 3.844a6.1 6.1 0 01-2.48 2.621c-1.09.641-2.43.962-4.02.962-2.12 0-3.81-.525-5.1-1.573-1.28-1.049-2.04-2.437-2.3-4.165h3.24c.21.913.68 1.641 1.42 2.184.74.525 1.66.787 2.77.787 1.38 0 2.41-.418 3.09-1.253.7-.835 1.05-1.941 1.05-3.32 0-1.398-.35-2.466-1.05-3.204-.7-.757-1.73-1.136-3.09-1.136-.95 0-1.76.243-2.42.729-.64.466-1.1 1.106-1.4 1.922h-3.14v-12.262h12.81v2.913zm16.33 2.068c-.21-.894-.6-1.563-1.16-2.01-.56-.447-1.35-.67-2.36-.67-1.53 0-2.68.592-3.44 1.777-.75 1.165-1.15 3.106-1.19 5.825.5-.855 1.24-1.515 2.21-1.981a7.179 7.179 0 013.15-.699c1.28 0 2.4.282 3.38.845.99.544 1.75 1.34 2.3 2.388.56 1.049.84 2.301.84 3.757 0 1.359-.27 2.573-.81 3.641a5.967 5.967 0 01-2.36 2.534c-1.05.602-2.31.903-3.79.903-2 0-3.57-.437-4.72-1.311-1.12-.893-1.92-2.146-2.39-3.757-.44-1.612-.67-3.621-.67-6.029 0-7.107 2.51-10.66 7.52-10.66 1.94 0 3.46.524 4.57 1.573 1.13 1.048 1.79 2.34 1.98 3.874h-3.06zm-3.52 5.038c-1.19 0-2.19.359-3.03 1.078-.82.699-1.22 1.718-1.22 3.058 0 1.34.38 2.408 1.13 3.204.78.776 1.86 1.165 3.24 1.165 1.22 0 2.18-.379 2.88-1.136.72-.757 1.08-1.767 1.08-3.029 0-1.32-.35-2.369-1.05-3.146-.68-.796-1.69-1.194-3.03-1.194zm116.64-6.092c1.24 0 2.34.243 3.28.73a5.147 5.147 0 012.19 2.09c.52.895.78 1.937.78 3.126 0 1.189-.26 2.231-.78 3.126-.51.883-1.24 1.569-2.19 2.056-.94.487-2.04.73-3.28.73h-4.15v-11.858h4.15zm-.09 9.836c1.25 0 2.21-.339 2.89-1.019.68-.679 1.02-1.637 1.02-2.871 0-1.235-.34-2.197-1.02-2.888-.68-.703-1.64-1.054-2.89-1.054h-1.68v7.832h1.68zm18.74-2.888c0 .34-.02.646-.07.918h-6.88c.06.679.29 1.212.71 1.597s.94.577 1.55.577c.88 0 1.51-.379 1.88-1.138h2.57a4.317 4.317 0 01-1.56 2.243c-.77.577-1.72.866-2.84.866-.91 0-1.72-.198-2.45-.594a4.414 4.414 0 01-1.68-1.716c-.4-.737-.59-1.586-.59-2.549 0-.974.19-1.829.59-2.565.4-.737.95-1.303 1.67-1.699.71-.397 1.53-.595 2.46-.595.89 0 1.69.193 2.4.578.71.385 1.26.934 1.64 1.648.4.702.6 1.512.6 2.429zm-2.47-.679c-.01-.612-.23-1.099-.66-1.461-.43-.374-.96-.561-1.58-.561-.59 0-1.09.181-1.49.544-.4.351-.64.843-.73 1.478h4.46zm8.45-2.447c.31-.453.73-.821 1.26-1.104.54-.283 1.16-.425 1.85-.425.8 0 1.53.198 2.18.595.65.396 1.17.962 1.54 1.699.39.725.58 1.568.58 2.531 0 .963-.19 1.818-.58 2.566a4.224 4.224 0 01-1.54 1.716c-.65.407-1.38.611-2.18.611-.7 0-1.32-.136-1.85-.408a3.722 3.722 0 01-1.26-1.087v1.342h-2.38v-12.572h2.38v4.536zm4.98 3.296c0-.566-.12-1.053-.36-1.461a2.297 2.297 0 00-.91-.951 2.447 2.447 0 00-1.23-.323c-.43 0-.84.113-1.22.34-.38.215-.68.532-.92.951-.23.419-.34.912-.34 1.478s.11 1.059.34 1.478c.24.419.54.742.92.969.38.215.79.322 1.22.322.44 0 .85-.113 1.23-.339.38-.227.69-.55.91-.969.24-.419.36-.917.36-1.495zm7.23-5.793c-.42 0-.77-.131-1.05-.391a1.372 1.372 0 01-.41-1.002c0-.397.14-.725.41-.986.28-.272.63-.408 1.05-.408.42 0 .77.136 1.04.408.28.261.42.589.42.986 0 .396-.14.73-.42 1.002-.27.26-.62.391-1.04.391zm1.17 1.121v9.412h-2.37v-9.412h2.37zm6.99 1.954v4.553c0 .317.08.549.22.697.16.136.42.203.79.203h1.1v2.005h-1.5c-2 0-3-.974-3-2.922v-4.536h-1.12v-1.954h1.12v-2.328h2.39v2.328h2.11v1.954h-2.11zm10.99 2.752c0-.974.2-1.823.6-2.548.4-.737.94-1.303 1.65-1.699.7-.408 1.5-.612 2.41-.612 1.17 0 2.13.295 2.89.884.77.577 1.28 1.393 1.54 2.446h-2.56a1.83 1.83 0 00-.7-.951c-.32-.238-.71-.357-1.19-.357-.68 0-1.21.249-1.61.747-.4.487-.6 1.184-.6 2.09 0 .895.2 1.591.6 2.09.4.487.93.73 1.61.73.97 0 1.59-.43 1.89-1.291h2.56c-.26 1.02-.77 1.829-1.54 2.43-.77.6-1.73.9-2.89.9-.91 0-1.71-.198-2.41-.594a4.308 4.308 0 01-1.65-1.699c-.4-.737-.6-1.592-.6-2.566zm12.09-.034c0-.951.19-1.795.56-2.531.39-.737.9-1.303 1.55-1.699a4.167 4.167 0 012.19-.595c.7 0 1.32.142 1.84.425.53.283.95.64 1.27 1.07v-1.342h2.4v9.412h-2.4v-1.376c-.3.442-.73.81-1.27 1.104-.54.284-1.15.425-1.85.425-.8 0-1.52-.204-2.18-.611-.65-.408-1.16-.98-1.55-1.716-.37-.748-.56-1.603-.56-2.566zm7.41.034c0-.578-.11-1.07-.34-1.478-.23-.419-.53-.736-.92-.951-.38-.227-.79-.34-1.24-.34-.44 0-.85.107-1.22.323-.37.215-.68.532-.92.951-.22.408-.34.895-.34 1.461 0 .566.12 1.065.34 1.495.24.419.55.742.92.969.39.226.79.339 1.22.339.45 0 .86-.107 1.24-.322.39-.227.69-.544.92-.952.23-.419.34-.917.34-1.495zm8.97-3.245a3.3 3.3 0 011.19-1.172c.49-.283 1.06-.425 1.7-.425v2.498h-.63c-.75 0-1.32.175-1.7.526-.38.351-.56.963-.56 1.835v4.689h-2.38v-9.412h2.38v1.461zm5.74 3.211c0-.951.19-1.795.57-2.531.38-.737.9-1.303 1.56-1.699a4.167 4.167 0 012.19-.595c.61 0 1.2.136 1.75.408.55.26 1 .611 1.33 1.053v-4.468h2.41v12.572h-2.41v-1.393c-.3.464-.71.838-1.25 1.121-.53.284-1.14.425-1.85.425-.79 0-1.51-.204-2.17-.611-.66-.408-1.18-.98-1.56-1.716-.38-.748-.57-1.603-.57-2.566zm7.41.034c0-.578-.11-1.07-.34-1.478a2.26 2.26 0 00-.92-.951c-.38-.227-.79-.34-1.24-.34-.44 0-.84.107-1.22.323-.37.215-.68.532-.92.951-.22.408-.34.895-.34 1.461 0 .566.12 1.065.34 1.495.24.419.55.742.92.969.39.226.79.339 1.22.339a2.402 2.402 0 002.16-1.274c.23-.419.34-.917.34-1.495zm-319.38-63.973l-6.08 14.002h-2.51l6.14-13.74h-8.08v-2.119h10.53v1.857zm9.58 10.682v-1.879l7.34-10.528h3.01v10.244h2.03v2.163h-2.03v3.32h-2.45v-3.32h-7.9zm8.01-9.874l-5.15 7.711h5.15v-7.711zm16.88 4.872c-1.52-.758-2.28-1.952-2.28-3.583 0-.786.2-1.507.59-2.162.4-.656.99-1.173 1.77-1.551.79-.393 1.75-.59 2.89-.59 1.12 0 2.07.197 2.86.59.8.378 1.4.895 1.79 1.551.39.655.59 1.376.59 2.162 0 .816-.21 1.537-.63 2.163a4.142 4.142 0 01-1.64 1.42c.83.305 1.48.808 1.96 1.507.48.684.72 1.492.72 2.424 0 .947-.24 1.784-.72 2.512-.48.729-1.15 1.289-2.01 1.682-.86.394-1.83.59-2.92.59-1.1 0-2.07-.196-2.93-.59-.84-.393-1.51-.953-1.99-1.682-.48-.728-.72-1.565-.72-2.512 0-.946.24-1.762.72-2.446.48-.685 1.13-1.18 1.95-1.485zm5.83-3.277c0-.816-.26-1.442-.77-1.879-.51-.436-1.2-.655-2.09-.655-.88 0-1.57.219-2.08.655-.51.437-.76 1.071-.76 1.901 0 .728.26 1.325.78 1.791.54.451 1.23.677 2.06.677.83 0 1.51-.233 2.05-.699.54-.466.81-1.063.81-1.791zm-2.86 4.369c-.96 0-1.75.24-2.36.721-.6.466-.9 1.143-.9 2.031 0 .83.29 1.507.88 2.032.58.509 1.37.764 2.38.764.99 0 1.77-.262 2.33-.786.59-.525.88-1.194.88-2.01 0-.874-.3-1.551-.9-2.031-.58-.481-1.35-.721-2.31-.721zm32.14-1.092c-1.52-.758-2.27-1.952-2.27-3.583 0-.786.19-1.507.59-2.162.39-.656.98-1.173 1.77-1.551.78-.393 1.74-.59 2.88-.59 1.12 0 2.08.197 2.86.59.8.378 1.4.895 1.79 1.551.4.655.59 1.376.59 2.162 0 .816-.21 1.537-.63 2.163a4.075 4.075 0 01-1.64 1.42c.83.305 1.49.808 1.97 1.507.48.684.72 1.492.72 2.424 0 .947-.24 1.784-.72 2.512-.48.729-1.15 1.289-2.01 1.682-.86.394-1.84.59-2.93.59s-2.07-.196-2.93-.59c-.84-.393-1.5-.953-1.98-1.682-.49-.728-.73-1.565-.73-2.512 0-.946.24-1.762.73-2.446a4.008 4.008 0 011.94-1.485zm5.83-3.277c0-.816-.25-1.442-.76-1.879-.51-.436-1.21-.655-2.1-.655-.87 0-1.57.219-2.08.655-.5.437-.76 1.071-.76 1.901 0 .728.26 1.325.79 1.791.54.451 1.22.677 2.05.677.83 0 1.51-.233 2.05-.699.54-.466.81-1.063.81-1.791zm-2.86 4.369c-.96 0-1.75.24-2.36.721-.6.466-.89 1.143-.89 2.031 0 .83.29 1.507.87 2.032.58.509 1.38.764 2.38.764.99 0 1.77-.262 2.34-.786.58-.525.87-1.194.87-2.01 0-.874-.3-1.551-.89-2.031-.59-.481-1.36-.721-2.32-.721zm19.13 2.905c.14.728.46 1.281.94 1.66.48.379 1.13.568 1.94.568 1.04 0 1.79-.408 2.27-1.223.48-.816.72-2.206.72-4.172-.34.495-.84.881-1.48 1.157-.63.262-1.31.394-2.05.394-.95 0-1.81-.19-2.58-.568a4.477 4.477 0 01-1.84-1.726c-.43-.772-.65-1.704-.65-2.796 0-1.602.46-2.876 1.4-3.823.94-.961 2.24-1.441 3.88-1.441 1.98 0 3.39.662 4.22 1.987.84 1.311 1.27 3.328 1.27 6.051 0 1.879-.16 3.415-.48 4.609-.31 1.194-.85 2.097-1.62 2.709-.77.611-1.84.917-3.21.917-1.56 0-2.76-.408-3.61-1.223-.84-.816-1.31-1.842-1.42-3.08h2.3zm2.77-3.713c.88 0 1.56-.27 2.06-.809.51-.553.76-1.281.76-2.184 0-1.005-.27-1.784-.81-2.337-.52-.568-1.24-.852-2.16-.852-.92 0-1.65.291-2.18.873-.53.568-.79 1.318-.79 2.25 0 .889.25 1.624.76 2.207.53.568 1.31.852 2.36.852zm24.31-4.194c-.16-.67-.45-1.173-.87-1.508-.43-.335-1.02-.502-1.77-.502-1.15 0-2.01.444-2.58 1.332-.57.874-.87 2.33-.9 4.369.38-.641.94-1.136 1.66-1.485.73-.35 1.52-.525 2.36-.525.96 0 1.81.212 2.54.634.74.408 1.31 1.005 1.72 1.791.42.787.64 1.726.64 2.818 0 1.019-.21 1.93-.62 2.73a4.414 4.414 0 01-1.77 1.901c-.78.451-1.73.677-2.83.677-1.5 0-2.68-.328-3.54-.983-.85-.67-1.45-1.609-1.79-2.818-.34-1.208-.51-2.716-.51-4.521 0-5.33 1.88-7.995 5.64-7.995 1.45 0 2.6.393 3.43 1.179a4.641 4.641 0 011.48 2.906h-2.29zm-2.64 3.778c-.89 0-1.65.27-2.28.809-.61.524-.91 1.288-.91 2.293 0 1.005.28 1.806.85 2.403.58.583 1.39.874 2.42.874.92 0 1.64-.284 2.17-.852.54-.568.8-1.325.8-2.272 0-.99-.26-1.776-.78-2.359-.51-.597-1.27-.896-2.27-.896zm15.54 5.134v-1.879l7.34-10.528h3.01v10.244h2.04v2.163h-2.04v3.32h-2.44v-3.32h-7.91zm8.02-9.874l-5.16 7.711h5.16v-7.711zm37.88-.589h-7.32v4.347c.31-.408.76-.75 1.36-1.027a4.648 4.648 0 011.94-.415c1.22 0 2.21.262 2.97.786.77.524 1.32 1.187 1.64 1.988.33.801.5 1.646.5 2.534 0 1.077-.21 2.039-.63 2.883a4.577 4.577 0 01-1.86 1.966c-.81.481-1.82.721-3.01.721-1.59 0-2.86-.393-3.83-1.18-.96-.786-1.53-1.827-1.72-3.123h2.42c.16.684.52 1.23 1.07 1.638.56.393 1.25.59 2.08.59 1.03 0 1.8-.313 2.31-.939.53-.627.79-1.457.79-2.491 0-1.048-.26-1.849-.79-2.402-.52-.568-1.29-.852-2.31-.852-.71 0-1.32.182-1.81.546-.48.349-.83.83-1.05 1.441h-2.36v-9.196h9.61v2.185zm20 1.551c-.16-.67-.45-1.173-.87-1.508-.43-.335-1.01-.502-1.77-.502-1.15 0-2.01.444-2.58 1.332-.57.874-.87 2.33-.9 4.369.38-.641.94-1.136 1.66-1.485.73-.35 1.52-.525 2.36-.525.97 0 1.81.212 2.54.634a4.148 4.148 0 011.72 1.791c.43.787.64 1.726.64 2.818 0 1.019-.21 1.93-.61 2.73-.4.801-.99 1.435-1.77 1.901-.79.451-1.74.677-2.84.677-1.5 0-2.68-.328-3.54-.983-.85-.67-1.44-1.609-1.79-2.818-.34-1.208-.51-2.716-.51-4.521 0-5.33 1.88-7.995 5.64-7.995 1.46 0 2.6.393 3.43 1.179a4.641 4.641 0 011.48 2.906h-2.29zm-2.64 3.778c-.89 0-1.65.27-2.27.809-.62.524-.92 1.288-.92 2.293 0 1.005.28 1.806.85 2.403.58.583 1.39.874 2.43.874.91 0 1.63-.284 2.16-.852.54-.568.81-1.325.81-2.272 0-.99-.27-1.776-.79-2.359-.51-.597-1.27-.896-2.27-.896zm18.53.132c-1.51-.758-2.27-1.952-2.27-3.583 0-.786.2-1.507.59-2.162.4-.656.99-1.173 1.77-1.551.79-.393 1.75-.59 2.89-.59 1.12 0 2.07.197 2.86.59.8.378 1.39.895 1.79 1.551.39.655.59 1.376.59 2.162 0 .816-.21 1.537-.64 2.163-.4.611-.95 1.085-1.63 1.42.83.305 1.48.808 1.96 1.507.48.684.72 1.492.72 2.424 0 .947-.24 1.784-.72 2.512-.48.729-1.15 1.289-2.01 1.682-.86.394-1.83.59-2.92.59-1.1 0-2.07-.196-2.93-.59-.85-.393-1.51-.953-1.99-1.682-.48-.728-.72-1.565-.72-2.512 0-.946.24-1.762.72-2.446a4.055 4.055 0 011.94-1.485zm5.84-3.277c0-.816-.26-1.442-.77-1.879-.51-.436-1.21-.655-2.09-.655-.88 0-1.57.219-2.08.655-.51.437-.76 1.071-.76 1.901 0 .728.26 1.325.78 1.791.54.451 1.23.677 2.06.677.83 0 1.51-.233 2.05-.699.54-.466.81-1.063.81-1.791zm-2.86 4.369c-.97 0-1.75.24-2.36.721-.6.466-.9 1.143-.9 2.031 0 .83.29 1.507.87 2.032.59.509 1.38.764 2.39.764.99 0 1.76-.262 2.33-.786.59-.525.88-1.194.88-2.01 0-.874-.3-1.551-.9-2.031-.58-.481-1.35-.721-2.31-.721zm18.71-1.092c-1.52-.758-2.27-1.952-2.27-3.583 0-.786.19-1.507.59-2.162.39-.656.98-1.173 1.77-1.551.78-.393 1.74-.59 2.88-.59 1.12 0 2.07.197 2.86.59.8.378 1.4.895 1.79 1.551.4.655.59 1.376.59 2.162 0 .816-.21 1.537-.63 2.163a4.142 4.142 0 01-1.64 1.42c.83.305 1.49.808 1.97 1.507.48.684.72 1.492.72 2.424 0 .947-.24 1.784-.72 2.512-.48.729-1.15 1.289-2.01 1.682-.86.394-1.84.59-2.93.59s-2.07-.196-2.93-.59a4.78 4.78 0 01-1.99-1.682c-.48-.728-.72-1.565-.72-2.512 0-.946.24-1.762.72-2.446a4.081 4.081 0 011.95-1.485zm5.83-3.277c0-.816-.25-1.442-.76-1.879-.51-.436-1.21-.655-2.1-.655-.87 0-1.57.219-2.08.655-.51.437-.76 1.071-.76 1.901 0 .728.26 1.325.79 1.791.53.451 1.22.677 2.05.677.83 0 1.51-.233 2.05-.699.54-.466.81-1.063.81-1.791zm-2.86 4.369c-.96 0-1.75.24-2.36.721-.6.466-.9 1.143-.9 2.031 0 .83.3 1.507.88 2.032.58.509 1.37.764 2.38.764.99 0 1.77-.262 2.34-.786.58-.525.87-1.194.87-2.01 0-.874-.3-1.551-.9-2.031-.58-.481-1.35-.721-2.31-.721zm29.15 3.91v-1.879l7.34-10.528h3.01v10.244h2.03v2.163h-2.03v3.32h-2.44v-3.32h-7.91zm8.02-9.874l-5.16 7.711h5.16v-7.711zm24.45-.589h-7.32v4.347c.31-.408.76-.75 1.36-1.027a4.648 4.648 0 011.94-.415c1.22 0 2.21.262 2.97.786.77.524 1.32 1.187 1.64 1.988.33.801.5 1.646.5 2.534 0 1.077-.21 2.039-.63 2.883a4.577 4.577 0 01-1.86 1.966c-.81.481-1.82.721-3.01.721-1.59 0-2.86-.393-3.83-1.18-.96-.786-1.53-1.827-1.72-3.123h2.42c.16.684.52 1.23 1.07 1.638.56.393 1.25.59 2.08.59 1.03 0 1.8-.313 2.31-.939.53-.627.79-1.457.79-2.491 0-1.048-.26-1.849-.79-2.402-.52-.568-1.29-.852-2.31-.852-.72 0-1.32.182-1.81.546-.49.349-.83.83-1.05 1.441h-2.36v-9.196h9.61v2.185zm11.44 5.613c0-2.519.42-4.485 1.26-5.897.86-1.427 2.33-2.141 4.42-2.141 2.08 0 3.54.714 4.39 2.141.86 1.412 1.29 3.378 1.29 5.897 0 2.549-.43 4.544-1.29 5.986-.85 1.427-2.31 2.14-4.39 2.14-2.09 0-3.56-.713-4.42-2.14-.84-1.442-1.26-3.437-1.26-5.986zm8.91 0c0-1.179-.08-2.177-.24-2.992-.15-.816-.45-1.478-.92-1.988-.46-.524-1.16-.786-2.07-.786-.92 0-1.61.262-2.08.786-.46.51-.78 1.172-.94 1.988-.14.815-.22 1.813-.22 2.992 0 1.224.08 2.25.22 3.08.15.83.45 1.5.92 2.01.48.51 1.18.765 2.1.765.91 0 1.61-.255 2.07-.765.48-.51.8-1.18.94-2.01.15-.83.22-1.856.22-3.08z" fill="#fff"/></g><g filter="url(#filter3_d)"><rect x="888.802" y="70" width="371.344" height="233" rx="24.271" fill="url(#paint3_angular)"/><path d="M1077.05 191.093a75.276 75.276 0 00-60.59-73.824 75.273 75.273 0 00-50.165 7.441c-15.358 8.209-62.695-58.578-69.359-42.49-6.664 16.089 27.757 114.058 32.812 130.722A75.273 75.273 0 001009.15 266a75.27 75.27 0 0045.85-21.684l-17.11-17.112a51.068 51.068 0 11-60.187-81.15c10.42-5.57 127.407 138.837 138.997 141.142 11.59 2.305-82.94-137.635-75.45-128.501a51.049 51.049 0 0111.6 32.398h24.2z" fill="url(#paint4_linear)" fill-opacity=".62"/><path d="M1188.81 209.082a61.185 61.185 0 00-49.25-60.009 61.19 61.19 0 00-40.78 6.049c-12.48 6.673-50.96-47.617-56.38-34.539-5.42 13.078 22.56 92.714 26.67 106.26a61.197 61.197 0 0024.56 33.112 61.18 61.18 0 0039.99 10.016 61.185 61.185 0 0037.27-17.625l-13.91-13.911a41.511 41.511 0 01-25.29 11.959 41.505 41.505 0 01-43.79-29.262 41.53 41.53 0 011.37-27.936 41.53 41.53 0 0118.78-20.725c8.47-4.527 103.57 112.856 112.99 114.73 9.42 1.874-67.42-111.878-61.33-104.454a41.525 41.525 0 019.42 26.335h19.68z" fill="url(#paint5_linear)" fill-opacity=".3"/><path d="M922.495 201.352l-6.072 14.002h-2.512l6.138-13.74h-8.082v-2.119h10.528v1.857zm9.58 10.682v-1.879l7.34-10.528h3.014v10.244h2.032v2.163h-2.032v3.32h-2.446v-3.32h-7.908zm8.017-9.874l-5.155 7.711h5.155v-7.711zm16.873 4.872c-1.514-.758-2.271-1.952-2.271-3.583 0-.786.196-1.507.59-2.162.393-.656.982-1.173 1.769-1.551.786-.393 1.747-.59 2.883-.59 1.122 0 2.075.197 2.862.59.801.378 1.398.895 1.791 1.551.393.655.59 1.376.59 2.162 0 .816-.211 1.537-.634 2.163a4.09 4.09 0 01-1.638 1.42c.83.305 1.485.808 1.966 1.507.48.684.721 1.492.721 2.424 0 .947-.241 1.784-.721 2.512-.481.729-1.151 1.289-2.01 1.682-.859.394-1.835.59-2.927.59s-2.068-.196-2.927-.59c-.844-.393-1.507-.953-1.988-1.682-.48-.728-.72-1.565-.72-2.512 0-.946.24-1.762.72-2.446a4.046 4.046 0 011.944-1.485zm5.833-3.277c0-.816-.255-1.442-.765-1.879-.509-.436-1.208-.655-2.097-.655-.874 0-1.565.219-2.075.655-.51.437-.764 1.071-.764 1.901 0 .728.262 1.325.786 1.791.539.451 1.223.677 2.053.677.83 0 1.515-.233 2.054-.699.538-.466.808-1.063.808-1.791zm-2.862 4.369c-.961 0-1.747.24-2.359.721-.597.466-.895 1.143-.895 2.031 0 .83.291 1.507.873 2.032.583.509 1.376.764 2.381.764.99 0 1.77-.262 2.338-.786.582-.525.873-1.194.873-2.01 0-.874-.298-1.551-.895-2.031-.583-.481-1.355-.721-2.316-.721zm32.142-1.092c-1.514-.758-2.271-1.952-2.271-3.583 0-.786.196-1.507.589-2.162.394-.656.983-1.173 1.77-1.551.786-.393 1.747-.59 2.883-.59 1.122 0 2.075.197 2.862.59.801.378 1.398.895 1.791 1.551.398.655.588 1.376.588 2.162 0 .816-.21 1.537-.632 2.163a4.096 4.096 0 01-1.638 1.42c.83.305 1.485.808 1.966 1.507.484.684.724 1.492.724 2.424 0 .947-.24 1.784-.724 2.512-.481.729-1.151 1.289-2.01 1.682-.859.394-1.835.59-2.927.59s-2.068-.196-2.927-.59c-.844-.393-1.507-.953-1.988-1.682-.48-.728-.72-1.565-.72-2.512 0-.946.24-1.762.72-2.446a4.046 4.046 0 011.944-1.485zm5.833-3.277c0-.816-.255-1.442-.765-1.879-.509-.436-1.208-.655-2.097-.655-.874 0-1.565.219-2.075.655-.51.437-.764 1.071-.764 1.901 0 .728.262 1.325.786 1.791.539.451 1.223.677 2.053.677.83 0 1.515-.233 2.054-.699.538-.466.808-1.063.808-1.791zm-2.862 4.369c-.961 0-1.747.24-2.359.721-.597.466-.896 1.143-.896 2.031 0 .83.292 1.507.874 2.032.583.509 1.376.764 2.381.764.99 0 1.77-.262 2.337-.786.583-.525.874-1.194.874-2.01 0-.874-.298-1.551-.895-2.031-.583-.481-1.355-.721-2.316-.721zm19.131 2.905c.14.728.46 1.281.94 1.66.48.379 1.13.568 1.94.568 1.03 0 1.79-.408 2.27-1.223.48-.816.72-2.206.72-4.172-.35.495-.84.881-1.48 1.157-.63.262-1.31.394-2.06.394-.94 0-1.8-.19-2.57-.568a4.477 4.477 0 01-1.84-1.726c-.43-.772-.65-1.704-.65-2.796 0-1.602.46-2.876 1.4-3.823.94-.961 2.24-1.441 3.88-1.441 1.98 0 3.39.662 4.22 1.987.84 1.311 1.27 3.328 1.27 6.051 0 1.879-.16 3.415-.48 4.609-.31 1.194-.85 2.097-1.62 2.709-.77.611-1.84.917-3.21.917-1.56 0-2.76-.408-3.61-1.223-.84-.816-1.31-1.842-1.42-3.08h2.3zm2.77-3.713c.88 0 1.56-.27 2.06-.809.5-.553.76-1.281.76-2.184 0-1.005-.27-1.784-.81-2.337-.52-.568-1.24-.852-2.16-.852-.92 0-1.65.291-2.19.873-.52.568-.78 1.318-.78 2.25 0 .889.25 1.624.76 2.207.53.568 1.31.852 2.36.852zm24.31-4.194c-.16-.67-.45-1.173-.87-1.508-.43-.335-1.02-.502-1.77-.502-1.15 0-2.01.444-2.58 1.332-.57.874-.87 2.33-.9 4.369.38-.641.93-1.136 1.66-1.485.73-.35 1.52-.525 2.36-.525.96 0 1.81.212 2.54.634.74.408 1.31 1.005 1.72 1.791.42.787.63 1.726.63 2.818 0 1.019-.2 1.93-.61 2.73a4.414 4.414 0 01-1.77 1.901c-.78.451-1.73.677-2.84.677-1.5 0-2.68-.328-3.53-.983-.85-.67-1.45-1.609-1.8-2.818-.33-1.208-.5-2.716-.5-4.521 0-5.33 1.88-7.995 5.64-7.995 1.45 0 2.6.393 3.43 1.179a4.641 4.641 0 011.48 2.906h-2.29zm-2.64 3.778c-.89 0-1.65.27-2.28.809-.61.524-.91 1.288-.91 2.293 0 1.005.28 1.806.85 2.403.58.583 1.39.874 2.42.874.92 0 1.64-.284 2.17-.852.53-.568.8-1.325.8-2.272 0-.99-.26-1.776-.78-2.359-.51-.597-1.27-.896-2.27-.896zm15.54 5.134v-1.879l7.34-10.528h3.01v10.244h2.04v2.163h-2.04v3.32h-2.44v-3.32h-7.91zm8.02-9.874l-5.16 7.711h5.16v-7.711zm37.88-.589h-7.32v4.347c.31-.408.76-.75 1.36-1.027a4.615 4.615 0 011.94-.415c1.22 0 2.21.262 2.97.786.77.524 1.32 1.187 1.64 1.988.33.801.5 1.646.5 2.534 0 1.077-.21 2.039-.63 2.883a4.577 4.577 0 01-1.86 1.966c-.82.481-1.82.721-3.01.721-1.59 0-2.87-.393-3.83-1.18-.96-.786-1.53-1.827-1.72-3.123h2.42c.16.684.52 1.23 1.07 1.638.56.393 1.25.59 2.08.59 1.03 0 1.8-.313 2.31-.939.53-.627.79-1.457.79-2.491 0-1.048-.26-1.849-.79-2.402-.52-.568-1.29-.852-2.31-.852-.72 0-1.32.182-1.82.546-.48.349-.83.83-1.04 1.441h-2.36v-9.196h9.61v2.185zm20 1.551c-.16-.67-.45-1.173-.87-1.508-.43-.335-1.02-.502-1.77-.502-1.15 0-2.01.444-2.58 1.332-.57.874-.87 2.33-.9 4.369.38-.641.94-1.136 1.66-1.485.73-.35 1.52-.525 2.36-.525.96 0 1.81.212 2.54.634.74.408 1.31 1.005 1.72 1.791.42.787.64 1.726.64 2.818 0 1.019-.21 1.93-.62 2.73a4.45 4.45 0 01-1.76 1.901c-.79.451-1.74.677-2.84.677-1.5 0-2.68-.328-3.54-.983-.85-.67-1.44-1.609-1.79-2.818-.34-1.208-.51-2.716-.51-4.521 0-5.33 1.88-7.995 5.64-7.995 1.46 0 2.6.393 3.43 1.179a4.641 4.641 0 011.48 2.906h-2.29zm-2.64 3.778c-.89 0-1.65.27-2.27.809-.62.524-.92 1.288-.92 2.293 0 1.005.28 1.806.85 2.403.58.583 1.39.874 2.42.874.92 0 1.64-.284 2.17-.852.54-.568.81-1.325.81-2.272 0-.99-.27-1.776-.79-2.359-.51-.597-1.27-.896-2.27-.896zm18.53.132c-1.51-.758-2.27-1.952-2.27-3.583 0-.786.2-1.507.59-2.162.39-.656.98-1.173 1.77-1.551.79-.393 1.75-.59 2.88-.59s2.08.197 2.87.59c.8.378 1.39.895 1.79 1.551.39.655.59 1.376.59 2.162 0 .816-.21 1.537-.64 2.163-.4.611-.95 1.085-1.63 1.42.83.305 1.48.808 1.96 1.507.48.684.72 1.492.72 2.424 0 .947-.24 1.784-.72 2.512-.48.729-1.15 1.289-2.01 1.682-.86.394-1.83.59-2.93.59-1.09 0-2.06-.196-2.92-.59-.85-.393-1.51-.953-1.99-1.682-.48-.728-.72-1.565-.72-2.512 0-.946.24-1.762.72-2.446a4.055 4.055 0 011.94-1.485zm5.84-3.277c0-.816-.26-1.442-.77-1.879-.51-.436-1.21-.655-2.1-.655-.87 0-1.56.219-2.07.655-.51.437-.77 1.071-.77 1.901 0 .728.27 1.325.79 1.791.54.451 1.22.677 2.05.677.83 0 1.52-.233 2.06-.699.54-.466.81-1.063.81-1.791zm-2.87 4.369c-.96 0-1.74.24-2.35.721-.6.466-.9 1.143-.9 2.031 0 .83.29 1.507.87 2.032.59.509 1.38.764 2.38.764.99 0 1.77-.262 2.34-.786.58-.525.88-1.194.88-2.01 0-.874-.3-1.551-.9-2.031-.58-.481-1.35-.721-2.32-.721zm18.72-1.092c-1.52-.758-2.27-1.952-2.27-3.583 0-.786.19-1.507.59-2.162.39-.656.98-1.173 1.77-1.551.78-.393 1.74-.59 2.88-.59 1.12 0 2.07.197 2.86.59.8.378 1.4.895 1.79 1.551.39.655.59 1.376.59 2.162 0 .816-.21 1.537-.63 2.163a4.142 4.142 0 01-1.64 1.42c.83.305 1.48.808 1.97 1.507.48.684.72 1.492.72 2.424 0 .947-.24 1.784-.72 2.512-.49.729-1.16 1.289-2.01 1.682-.86.394-1.84.59-2.93.59s-2.07-.196-2.93-.59c-.84-.393-1.51-.953-1.99-1.682-.48-.728-.72-1.565-.72-2.512 0-.946.24-1.762.72-2.446.48-.685 1.13-1.18 1.95-1.485zm5.83-3.277c0-.816-.25-1.442-.76-1.879-.51-.436-1.21-.655-2.1-.655-.88 0-1.57.219-2.08.655-.51.437-.76 1.071-.76 1.901 0 .728.26 1.325.79 1.791.53.451 1.22.677 2.05.677.83 0 1.51-.233 2.05-.699.54-.466.81-1.063.81-1.791zm-2.86 4.369c-.96 0-1.75.24-2.36.721-.6.466-.9 1.143-.9 2.031 0 .83.3 1.507.88 2.032.58.509 1.37.764 2.38.764.99 0 1.77-.262 2.34-.786.58-.525.87-1.194.87-2.01 0-.874-.3-1.551-.9-2.031-.58-.481-1.35-.721-2.31-.721zm29.15 3.91v-1.879l7.34-10.528h3.01v10.244h2.03v2.163h-2.03v3.32h-2.44v-3.32h-7.91zm8.01-9.874l-5.15 7.711h5.15v-7.711zm24.46-.589h-7.32v4.347c.31-.408.76-.75 1.35-1.027a4.694 4.694 0 011.95-.415c1.22 0 2.21.262 2.97.786.77.524 1.32 1.187 1.64 1.988.33.801.5 1.646.5 2.534 0 1.077-.21 2.039-.63 2.883a4.577 4.577 0 01-1.86 1.966c-.82.481-1.82.721-3.01.721-1.59 0-2.87-.393-3.83-1.18-.96-.786-1.53-1.827-1.72-3.123h2.42c.16.684.52 1.23 1.07 1.638.56.393 1.25.59 2.08.59 1.03 0 1.8-.313 2.31-.939.53-.627.79-1.457.79-2.491 0-1.048-.26-1.849-.79-2.402-.52-.568-1.29-.852-2.31-.852-.72 0-1.32.182-1.82.546-.48.349-.83.83-1.04 1.441h-2.36v-9.196h9.61v2.185zm11.44 5.613c0-2.519.42-4.485 1.26-5.897.86-1.427 2.33-2.141 4.42-2.141 2.08 0 3.54.714 4.39 2.141.86 1.412 1.29 3.378 1.29 5.897 0 2.549-.43 4.544-1.29 5.986-.85 1.427-2.31 2.14-4.39 2.14-2.09 0-3.56-.713-4.42-2.14-.84-1.442-1.26-3.437-1.26-5.986zm8.91 0c0-1.179-.08-2.177-.24-2.992-.15-.816-.45-1.478-.92-1.988-.46-.524-1.16-.786-2.07-.786-.92 0-1.61.262-2.08.786-.46.51-.78 1.172-.94 1.988-.14.815-.22 1.813-.22 2.992 0 1.224.08 2.25.22 3.08.15.83.45 1.5.92 2.01.48.51 1.18.765 2.1.765.91 0 1.61-.255 2.07-.765.48-.51.8-1.18.94-2.01.15-.83.22-1.856.22-3.08z" fill="#fff"/><rect x="916.713" y="102.766" width="47.328" height="31.552" rx="6.068" fill="#fff" fill-opacity=".39"/><path stroke="#fff" stroke-opacity=".7" stroke-width="1.214" d="M924.601 102.766v31.552m10.922-31.552v31.552m10.922-31.552v31.552m9.709-31.552v31.552"/><path d="M1160.34 107.039l2.36 15.436 7.78-15.436h5.3l-10.86 20.445h-6.24l-3.64-20.445h5.3zm25.7 0l-3.61 20.445h-4.98l3.61-20.445h4.98zm11.33 20.649c-2.21 0-4.02-.475-5.42-1.427-1.37-.971-2.06-2.34-2.06-4.107 0-.174.02-.436.06-.786h5.18c-.06.738.12 1.32.52 1.748.41.427 1.03.64 1.87.64.75 0 1.35-.165 1.77-.495.45-.33.67-.796.67-1.398 0-.621-.28-1.126-.84-1.514-.54-.389-1.4-.825-2.56-1.311-1.13-.466-2.05-.903-2.77-1.311-.7-.427-1.31-.999-1.84-1.718-.52-.718-.78-1.621-.78-2.709-.02-1.339.31-2.504.99-3.495.68-.99 1.62-1.747 2.82-2.271 1.21-.525 2.59-.787 4.14-.787 1.4 0 2.64.224 3.73.67 1.08.427 1.93 1.058 2.53 1.893.6.816.9 1.787.9 2.913 0 .291-.01.505-.02.641h-5.31c.02-.078.03-.195.03-.35 0-.544-.19-.98-.58-1.311-.37-.349-.88-.524-1.54-.524-.7 0-1.27.175-1.72.524-.43.331-.64.787-.64 1.369 0 .583.27 1.078.81 1.486.55.388 1.39.844 2.54 1.369 1.14.524 2.08 1.009 2.79 1.456.74.446 1.37 1.048 1.9 1.806.52.737.78 1.65.78 2.737 0 1.204-.32 2.282-.96 3.233-.64.952-1.56 1.699-2.76 2.243-1.21.524-2.62.786-4.23.786zm26.57-3.815h-7.63l-1.87 3.611h-5.21l11.01-20.445h5.76l3.79 20.445h-5.27l-.58-3.611zm-.59-3.786l-1.19-7.573-3.9 7.573h5.09z" fill="#fff" fill-opacity=".5"/><path d="M932.718 269.77a5.46 5.46 0 01-.728 2.738c-.466.854-1.165 1.572-2.097 2.155-.913.582-2 .932-3.262 1.048v2.359h-1.893v-2.359c-1.825-.174-3.301-.747-4.427-1.718-1.126-.971-1.69-2.252-1.69-3.845h3.554c.058.758.301 1.389.728 1.894.427.485 1.039.796 1.835.932v-6.408c-1.301-.33-2.359-.66-3.175-.99a5.326 5.326 0 01-2.097-1.631c-.563-.738-.845-1.748-.845-3.029 0-1.612.564-2.942 1.69-3.99 1.126-1.068 2.602-1.69 4.427-1.864v-2.359h1.893v2.359c1.709.155 3.077.699 4.106 1.631 1.049.912 1.641 2.174 1.777 3.786h-3.553a2.784 2.784 0 00-.699-1.602c-.408-.485-.952-.815-1.631-.99v6.291c1.301.311 2.359.641 3.174.99.816.33 1.505.864 2.068 1.602.563.718.845 1.718.845 3zM922 260.741c0 .796.233 1.418.699 1.864.485.447 1.165.806 2.039 1.078v-5.884c-.835.098-1.505.399-2.01.903-.485.505-.728 1.185-.728 2.039zm4.631 12.233c.854-.136 1.524-.476 2.009-1.02.486-.563.729-1.233.729-2.009 0-.777-.243-1.379-.729-1.806-.466-.447-1.135-.806-2.009-1.078v5.913zm34.728-16.107l-8.097 18.67h-3.349l8.184-18.32h-10.776v-2.825h14.038v2.475zm17.259 14.679l-3.524 8.039h-2.156l2.068-8.039h3.612zm2.056-.436v-2.505l9.786-14.038h4.02v13.659h2.708v2.884h-2.708v4.427h-3.262v-4.427h-10.544zm10.689-13.165l-6.873 10.281h6.873v-10.281zm22.267-.786h-9.76v5.796c.41-.544 1.01-1 1.81-1.369a6.197 6.197 0 012.59-.554c1.63 0 2.95.35 3.96 1.049 1.03.699 1.76 1.582 2.18 2.65.45 1.068.67 2.194.67 3.379 0 1.437-.28 2.718-.84 3.844-.54 1.107-1.37 1.981-2.48 2.621-1.08.641-2.42.962-4.02.962-2.11 0-3.81-.525-5.09-1.573-1.28-1.049-2.05-2.437-2.3-4.165h3.23c.21.913.69 1.641 1.43 2.184.73.525 1.66.787 2.76.787 1.38 0 2.41-.418 3.09-1.253.7-.835 1.05-1.941 1.05-3.32 0-1.398-.35-2.466-1.05-3.204-.7-.757-1.73-1.136-3.09-1.136-.95 0-1.75.243-2.41.729-.64.466-1.11 1.106-1.4 1.922h-3.15v-12.262h12.82v2.913zm16.33 2.068c-.22-.894-.6-1.563-1.17-2.01-.56-.447-1.35-.67-2.36-.67-1.53 0-2.68.592-3.43 1.777-.76 1.165-1.16 3.106-1.2 5.825.51-.855 1.25-1.515 2.22-1.981a7.167 7.167 0 013.14-.699c1.28 0 2.41.282 3.38.845.99.544 1.76 1.34 2.3 2.388.56 1.049.85 2.301.85 3.757 0 1.359-.28 2.573-.82 3.641-.52 1.068-1.31 1.912-2.36 2.534-1.05.602-2.31.903-3.79.903-2 0-3.57-.437-4.71-1.311-1.13-.893-1.93-2.146-2.39-3.757-.45-1.612-.67-3.621-.67-6.029 0-7.107 2.5-10.66 7.51-10.66 1.94 0 3.47.524 4.58 1.573 1.12 1.048 1.78 2.34 1.98 3.874h-3.06zm-3.53 5.038c-1.18 0-2.19.359-3.03 1.078-.81.699-1.22 1.718-1.22 3.058 0 1.34.38 2.408 1.14 3.204.77.776 1.85 1.165 3.23 1.165 1.22 0 2.18-.379 2.88-1.136.72-.757 1.08-1.767 1.08-3.029 0-1.32-.35-2.369-1.05-3.146-.68-.796-1.69-1.194-3.03-1.194zm117.84-6.092c1.24 0 2.33.243 3.27.73a5.116 5.116 0 012.2 2.09c.52.895.78 1.937.78 3.126 0 1.189-.26 2.231-.78 3.126-.51.883-1.24 1.569-2.2 2.056-.94.487-2.03.73-3.27.73h-4.15v-11.858h4.15zm-.09 9.836c1.25 0 2.21-.339 2.89-1.019.68-.679 1.02-1.637 1.02-2.871 0-1.235-.34-2.197-1.02-2.888-.68-.703-1.64-1.054-2.89-1.054h-1.68v7.832h1.68zm18.74-2.888c0 .34-.03.646-.07.918h-6.88c.05.679.29 1.212.71 1.597s.94.577 1.55.577c.88 0 1.51-.379 1.88-1.138h2.57a4.317 4.317 0 01-1.56 2.243c-.77.577-1.72.866-2.84.866-.91 0-1.72-.198-2.45-.594a4.414 4.414 0 01-1.68-1.716c-.4-.737-.59-1.586-.59-2.549 0-.974.19-1.829.59-2.565.4-.737.95-1.303 1.66-1.699.72-.397 1.54-.595 2.47-.595.89 0 1.69.193 2.39.578a3.92 3.92 0 011.65 1.648c.4.702.6 1.512.6 2.429zm-2.47-.679c-.01-.612-.23-1.099-.66-1.461-.43-.374-.96-.561-1.58-.561-.59 0-1.09.181-1.49.544-.4.351-.64.843-.74 1.478h4.47zm8.45-2.447c.31-.453.72-.821 1.26-1.104.54-.283 1.16-.425 1.85-.425.8 0 1.53.198 2.17.595.66.396 1.18.962 1.55 1.699.38.725.58 1.568.58 2.531 0 .963-.2 1.818-.58 2.566a4.177 4.177 0 01-1.55 1.716c-.64.407-1.37.611-2.17.611-.7 0-1.32-.136-1.85-.408a3.722 3.722 0 01-1.26-1.087v1.342h-2.38v-12.572h2.38v4.536zm4.98 3.296c0-.566-.12-1.053-.36-1.461-.23-.419-.53-.736-.92-.951a2.384 2.384 0 00-1.22-.323c-.43 0-.84.113-1.22.34-.38.215-.68.532-.92.951-.23.419-.34.912-.34 1.478s.11 1.059.34 1.478c.24.419.54.742.92.969.38.215.79.322 1.22.322.44 0 .85-.113 1.22-.339.39-.227.69-.55.92-.969.24-.419.36-.917.36-1.495zm7.23-5.793c-.42 0-.77-.131-1.05-.391a1.372 1.372 0 01-.41-1.002c0-.397.14-.725.41-.986.28-.272.63-.408 1.05-.408.42 0 .77.136 1.04.408.28.261.42.589.42.986 0 .396-.14.73-.42 1.002-.27.26-.62.391-1.04.391zm1.17 1.121v9.412h-2.38v-9.412h2.38zm6.99 1.954v4.553c0 .317.07.549.22.697.16.136.42.203.78.203h1.11v2.005h-1.5c-2 0-3-.974-3-2.922v-4.536h-1.13v-1.954h1.13v-2.328h2.39v2.328h2.11v1.954h-2.11zm10.99 2.752c0-.974.2-1.823.6-2.548a4.09 4.09 0 011.65-1.699c.7-.408 1.5-.612 2.41-.612 1.16 0 2.13.295 2.89.884.77.577 1.28 1.393 1.54 2.446h-2.56a1.83 1.83 0 00-.7-.951c-.32-.238-.71-.357-1.19-.357-.68 0-1.22.249-1.61.747-.4.487-.6 1.184-.6 2.09 0 .895.2 1.591.6 2.09.39.487.93.73 1.61.73.96 0 1.59-.43 1.89-1.291h2.56c-.26 1.02-.77 1.829-1.54 2.43-.77.6-1.74.9-2.89.9-.91 0-1.71-.198-2.41-.594a4.242 4.242 0 01-1.65-1.699c-.4-.737-.6-1.592-.6-2.566zm12.09-.034c0-.951.19-1.795.56-2.531.39-.737.9-1.303 1.55-1.699a4.167 4.167 0 012.19-.595c.7 0 1.31.142 1.84.425.53.283.95.64 1.27 1.07v-1.342h2.4v9.412h-2.4v-1.376c-.31.442-.73.81-1.27 1.104-.54.284-1.15.425-1.86.425-.79 0-1.51-.204-2.17-.611-.65-.408-1.16-.98-1.55-1.716-.37-.748-.56-1.603-.56-2.566zm7.41.034c0-.578-.11-1.07-.34-1.478-.23-.419-.53-.736-.92-.951-.38-.227-.8-.34-1.24-.34-.44 0-.85.107-1.22.323-.37.215-.68.532-.92.951-.22.408-.34.895-.34 1.461 0 .566.12 1.065.34 1.495.24.419.55.742.92.969.38.226.79.339 1.22.339.44 0 .86-.107 1.24-.322.39-.227.69-.544.92-.952.23-.419.34-.917.34-1.495zm8.97-3.245a3.3 3.3 0 011.19-1.172c.49-.283 1.06-.425 1.69-.425v2.498h-.62c-.75 0-1.32.175-1.7.526-.38.351-.56.963-.56 1.835v4.689h-2.38v-9.412h2.38v1.461zm5.74 3.211c0-.951.19-1.795.56-2.531.39-.737.91-1.303 1.57-1.699.65-.397 1.38-.595 2.19-.595.61 0 1.19.136 1.75.408.55.26 1 .611 1.32 1.053v-4.468h2.42v12.572h-2.42v-1.393c-.29.464-.7.838-1.24 1.121-.53.284-1.15.425-1.85.425-.79 0-1.52-.204-2.17-.611-.66-.408-1.18-.98-1.57-1.716-.37-.748-.56-1.603-.56-2.566zm7.41.034c0-.578-.11-1.07-.34-1.478-.23-.419-.53-.736-.92-.951-.38-.227-.79-.34-1.24-.34-.44 0-.85.107-1.22.323-.37.215-.68.532-.92.951-.22.408-.34.895-.34 1.461 0 .566.12 1.065.34 1.495.24.419.55.742.92.969.39.226.79.339 1.22.339.45 0 .86-.107 1.24-.322.39-.227.69-.544.92-.952.23-.419.34-.917.34-1.495z" fill="#fff"/></g><g filter="url(#filter4_d)"><rect x="100" y="70" width="371.344" height="233" rx="24.271" fill="url(#paint6_angular)"/><path d="M288.244 191.093a75.272 75.272 0 00-60.585-73.824c-17.079-3.397-48.197 50.79-63.554 58.999-15.358 8.209-49.307-110.136-55.971-94.048-6.664 16.089 224.665 15.41 229.72 32.075 5.055 16.664-208.039 135.95-193.559 145.625 14.479 9.675 58.727 7.787 76.057 6.08a75.27 75.27 0 0045.846-21.683l-17.112-17.113a51.069 51.069 0 01-31.106 14.712c-11.758 1.158 32.615-92.01 22.791-98.574-9.824-6.564-114.284 103.006-117.713 91.7-3.43-11.306 38.214-52.577 42.735-63.492 4.521-10.916 21.477 32.655 31.897 27.086 10.42-5.57 118.617 86.255 130.206 88.56 11.588 2.305-82.94-137.634-75.444-128.501a51.071 51.071 0 0111.592 32.398h24.2z" fill="url(#paint7_linear)" fill-opacity=".62"/><path d="M400.005 209.082a61.187 61.187 0 00-13.888-38.815c-8.98-10.942 65.131-19.838 51.248-22.6-13.884-2.762-102.196 2.429-114.68 9.102-12.484 6.672-63.668-49.263-69.085-36.185-5.417 13.077 22.562 92.713 26.671 106.259a61.185 61.185 0 0024.557 33.112c11.77 7.864 18.332 37.151 32.419 35.764 14.088-1.387 34.828-33.364 44.837-43.373l-13.91-13.91a41.517 41.517 0 01-25.285 11.959c-9.557.941 19.333-79.796 11.348-85.132-7.986-5.335-52.353 65.06-55.141 55.87a41.515 41.515 0 011.372-27.937c3.675-8.873-46.323 93.095-37.853 88.567 8.47-4.527 160.201 3.565 169.621 5.438 9.419 1.874-67.419-111.878-61.326-104.454a41.51 41.51 0 019.423 26.335h19.672z" fill="url(#paint8_linear)" fill-opacity=".3"/><path d="M134.543 203.122c-.16-.67-.451-1.173-.873-1.508-.423-.335-1.012-.502-1.77-.502-1.15 0-2.009.444-2.577 1.332-.568.874-.867 2.33-.896 4.369.379-.641.932-1.136 1.66-1.485a5.375 5.375 0 012.359-.525c.962 0 1.806.212 2.534.634a4.19 4.19 0 011.726 1.791c.422.787.633 1.726.633 2.818 0 1.019-.203 1.93-.611 2.73a4.45 4.45 0 01-1.77 1.901c-.786.451-1.733.677-2.839.677-1.5 0-2.68-.328-3.539-.983-.845-.67-1.442-1.609-1.791-2.818-.335-1.208-.503-2.716-.503-4.521 0-5.33 1.879-7.995 5.636-7.995 1.456 0 2.6.393 3.43 1.179a4.657 4.657 0 011.485 2.906h-2.294zM131.9 206.9c-.888 0-1.645.27-2.271.809-.612.524-.918 1.288-.918 2.293 0 1.005.284 1.806.852 2.403.583.583 1.391.874 2.425.874.917 0 1.638-.284 2.162-.852.539-.568.808-1.325.808-2.272 0-.99-.262-1.776-.786-2.359-.51-.597-1.267-.896-2.272-.896zm26.117-5.329h-7.318v4.347c.306-.408.757-.75 1.354-1.027a4.66 4.66 0 011.944-.415c1.224 0 2.214.262 2.971.786.772.524 1.318 1.187 1.639 1.988a6.52 6.52 0 01.502 2.534c0 1.077-.211 2.039-.634 2.883a4.55 4.55 0 01-1.856 1.966c-.816.481-1.821.721-3.015.721-1.587 0-2.861-.393-3.822-1.18-.961-.786-1.537-1.827-1.726-3.123h2.425c.16.684.517 1.23 1.07 1.638.553.393 1.245.59 2.075.59 1.034 0 1.806-.313 2.316-.939.524-.627.786-1.457.786-2.491 0-1.048-.262-1.849-.786-2.402-.525-.568-1.296-.852-2.316-.852-.713 0-1.318.182-1.813.546-.48.349-.83.83-1.048 1.441h-2.36v-9.196h9.612v2.185zm14.125 5.461c-1.514-.758-2.271-1.952-2.271-3.583 0-.786.196-1.507.59-2.162.393-.656.982-1.173 1.769-1.551.786-.393 1.747-.59 2.883-.59 1.122 0 2.075.197 2.862.59.801.378 1.398.895 1.791 1.551.393.655.59 1.376.59 2.162 0 .816-.211 1.537-.634 2.163a4.09 4.09 0 01-1.638 1.42c.83.305 1.485.808 1.966 1.507.48.684.721 1.492.721 2.424 0 .947-.241 1.784-.721 2.512-.481.729-1.151 1.289-2.01 1.682-.859.394-1.835.59-2.927.59s-2.068-.196-2.927-.59c-.844-.393-1.507-.953-1.988-1.682-.48-.728-.72-1.565-.72-2.512 0-.946.24-1.762.72-2.446a4.046 4.046 0 011.944-1.485zm5.833-3.277c0-.816-.255-1.442-.765-1.879-.509-.436-1.208-.655-2.097-.655-.874 0-1.565.219-2.075.655-.51.437-.764 1.071-.764 1.901 0 .728.262 1.325.786 1.791.539.451 1.223.677 2.053.677.83 0 1.515-.233 2.054-.699.538-.466.808-1.063.808-1.791zm-2.862 4.369c-.961 0-1.747.24-2.359.721-.597.466-.895 1.143-.895 2.031 0 .83.291 1.507.873 2.032.583.509 1.376.764 2.381.764.99 0 1.77-.262 2.338-.786.582-.525.873-1.194.873-2.01 0-.874-.298-1.551-.895-2.031-.583-.481-1.355-.721-2.316-.721zm29.128-6.422v-2.272h4.544v15.924h-2.513v-13.652h-2.031zm18.821 9.327c.145.728.459 1.281.939 1.66.481.379 1.129.568 1.944.568 1.034 0 1.791-.408 2.272-1.223.48-.816.721-2.206.721-4.172-.35.495-.845.881-1.486 1.157a5.264 5.264 0 01-2.053.394c-.946 0-1.806-.19-2.577-.568a4.458 4.458 0 01-1.835-1.726c-.437-.772-.656-1.704-.656-2.796 0-1.602.466-2.876 1.398-3.823.947-.961 2.243-1.441 3.889-1.441 1.98 0 3.385.662 4.215 1.987.845 1.311 1.267 3.328 1.267 6.051 0 1.879-.16 3.415-.48 4.609-.306 1.194-.845 2.097-1.617 2.709-.772.611-1.842.917-3.211.917-1.558 0-2.759-.408-3.604-1.223-.845-.816-1.318-1.842-1.42-3.08h2.294zm2.774-3.713c.874 0 1.558-.27 2.053-.809.51-.553.765-1.281.765-2.184 0-1.005-.27-1.784-.808-2.337-.525-.568-1.246-.852-2.163-.852-.917 0-1.646.291-2.184.873-.525.568-.787 1.318-.787 2.25 0 .889.255 1.624.765 2.207.524.568 1.31.852 2.359.852zm15.7-3.954c.088-1.355.605-2.41 1.551-3.168.962-.757 2.185-1.135 3.67-1.135 1.02 0 1.901.182 2.643.546.743.364 1.304.859 1.682 1.485.379.626.568 1.333.568 2.119 0 .903-.24 1.675-.721 2.315-.48.641-1.055 1.071-1.725 1.289v.087c.859.263 1.529.743 2.009 1.442.481.685.721 1.566.721 2.643 0 .859-.196 1.624-.59 2.294-.393.67-.975 1.201-1.747 1.594-.772.379-1.697.568-2.774.568-1.573 0-2.869-.4-3.889-1.201-1.004-.816-1.543-1.981-1.616-3.495h2.403c.058.772.357 1.405.895 1.9.539.481 1.267.721 2.185.721.888 0 1.573-.24 2.053-.721.481-.495.721-1.128.721-1.9 0-1.019-.328-1.74-.983-2.163-.641-.436-1.631-.655-2.971-.655h-.568v-2.053h.59c1.18-.015 2.075-.211 2.687-.59.626-.379.939-.976.939-1.791 0-.699-.226-1.253-.677-1.66-.451-.423-1.092-.634-1.922-.634-.816 0-1.449.211-1.901.634a2.47 2.47 0 00-.808 1.529h-2.425zm20.463 8.672v-1.879l7.339-10.528h3.015v10.244h2.031v2.163h-2.031v3.32h-2.447v-3.32h-7.907zm8.016-9.874l-5.155 7.711h5.155v-7.711zm30.303 4.872c-1.515-.758-2.272-1.952-2.272-3.583 0-.786.196-1.507.59-2.162.393-.656.983-1.173 1.769-1.551.786-.393 1.747-.59 2.883-.59 1.122 0 2.075.197 2.862.59.801.378 1.398.895 1.791 1.551.393.655.59 1.376.59 2.162 0 .816-.211 1.537-.634 2.163a4.09 4.09 0 01-1.638 1.42c.83.305 1.485.808 1.966 1.507.481.684.721 1.492.721 2.424 0 .947-.24 1.784-.721 2.512-.481.729-1.15 1.289-2.01 1.682-.859.394-1.835.59-2.927.59s-2.068-.196-2.927-.59c-.844-.393-1.507-.953-1.988-1.682-.48-.728-.72-1.565-.72-2.512 0-.946.24-1.762.72-2.446a4.044 4.044 0 011.945-1.485zm5.832-3.277c0-.816-.255-1.442-.765-1.879-.509-.436-1.208-.655-2.097-.655-.873 0-1.565.219-2.075.655-.51.437-.764 1.071-.764 1.901 0 .728.262 1.325.786 1.791.539.451 1.223.677 2.053.677.83 0 1.515-.233 2.054-.699.538-.466.808-1.063.808-1.791zm-2.862 4.369c-.961 0-1.747.24-2.359.721-.597.466-.895 1.143-.895 2.031 0 .83.291 1.507.873 2.032.583.509 1.376.764 2.381.764.991 0 1.77-.262 2.338-.786.582-.525.873-1.194.873-2.01 0-.874-.298-1.551-.895-2.031-.583-.481-1.355-.721-2.316-.721zm16.027-.94c0-2.519.422-4.485 1.267-5.897.859-1.427 2.33-2.141 4.412-2.141 2.083 0 3.546.714 4.391 2.141.859 1.412 1.289 3.378 1.289 5.897 0 2.549-.43 4.544-1.289 5.986-.845 1.427-2.308 2.14-4.391 2.14-2.082 0-3.553-.713-4.412-2.14-.845-1.442-1.267-3.437-1.267-5.986zm8.912 0c0-1.179-.08-2.177-.24-2.992-.146-.816-.452-1.478-.918-1.988-.466-.524-1.157-.786-2.075-.786-.917 0-1.609.262-2.075.786-.466.51-.779 1.172-.939 1.988-.146.815-.219 1.813-.219 2.992 0 1.224.073 2.25.219 3.08.145.83.451 1.5.917 2.01.481.51 1.18.765 2.097.765.918 0 1.609-.255 2.075-.765.481-.51.794-1.18.94-2.01.145-.83.218-1.856.218-3.08zm15.523-.152c-1.515-.758-2.272-1.952-2.272-3.583 0-.786.197-1.507.59-2.162.393-.656.983-1.173 1.769-1.551.787-.393 1.748-.59 2.884-.59 1.121 0 2.075.197 2.861.59.801.378 1.398.895 1.791 1.551.394.655.59 1.376.59 2.162 0 .816-.211 1.537-.633 2.163a4.092 4.092 0 01-1.639 1.42c.83.305 1.486.808 1.966 1.507.481.684.721 1.492.721 2.424 0 .947-.24 1.784-.721 2.512-.48.729-1.15 1.289-2.009 1.682-.859.394-1.835.59-2.927.59-1.093 0-2.068-.196-2.927-.59-.845-.393-1.508-.953-1.988-1.682-.481-.728-.721-1.565-.721-2.512 0-.946.24-1.762.721-2.446a4.037 4.037 0 011.944-1.485zm5.832-3.277c0-.816-.255-1.442-.764-1.879-.51-.436-1.209-.655-2.097-.655-.874 0-1.566.219-2.076.655-.509.437-.764 1.071-.764 1.901 0 .728.262 1.325.786 1.791.539.451 1.224.677 2.054.677.83 0 1.514-.233 2.053-.699.539-.466.808-1.063.808-1.791zm-2.861 4.369c-.961 0-1.748.24-2.359.721-.598.466-.896 1.143-.896 2.031 0 .83.291 1.507.874 2.032.582.509 1.376.764 2.381.764.99 0 1.769-.262 2.337-.786.582-.525.874-1.194.874-2.01 0-.874-.299-1.551-.896-2.031-.582-.481-1.354-.721-2.315-.721zm18.713-1.092c-1.514-.758-2.272-1.952-2.272-3.583 0-.786.197-1.507.59-2.162.393-.656.983-1.173 1.769-1.551.787-.393 1.748-.59 2.884-.59 1.121 0 2.075.197 2.861.59.801.378 1.398.895 1.792 1.551.393.655.589 1.376.589 2.162 0 .816-.211 1.537-.633 2.163a4.096 4.096 0 01-1.638 1.42c.83.305 1.485.808 1.966 1.507.48.684.72 1.492.72 2.424 0 .947-.24 1.784-.72 2.512-.481.729-1.151 1.289-2.01 1.682-.859.394-1.835.59-2.927.59s-2.068-.196-2.927-.59c-.845-.393-1.507-.953-1.988-1.682-.481-.728-.721-1.565-.721-2.512 0-.946.24-1.762.721-2.446a4.046 4.046 0 011.944-1.485zm5.832-3.277c0-.816-.254-1.442-.764-1.879-.51-.436-1.209-.655-2.097-.655-.874 0-1.566.219-2.075.655-.51.437-.765 1.071-.765 1.901 0 .728.262 1.325.787 1.791.538.451 1.223.677 2.053.677.83 0 1.514-.233 2.053-.699.539-.466.808-1.063.808-1.791zm-2.861 4.369c-.961 0-1.748.24-2.359.721-.597.466-.896 1.143-.896 2.031 0 .83.291 1.507.874 2.032.582.509 1.376.764 2.381.764.99 0 1.769-.262 2.337-.786.583-.525.874-1.194.874-2.01 0-.874-.299-1.551-.896-2.031-.582-.481-1.354-.721-2.315-.721zm39.722-6.553h-7.318v4.347c.306-.408.757-.75 1.354-1.027a4.661 4.661 0 011.945-.415c1.223 0 2.213.262 2.97.786.772.524 1.318 1.187 1.639 1.988.335.801.502 1.646.502 2.534 0 1.077-.211 2.039-.633 2.883a4.558 4.558 0 01-1.857 1.966c-.816.481-1.821.721-3.015.721-1.587 0-2.861-.393-3.822-1.18-.961-.786-1.537-1.827-1.726-3.123h2.425c.16.684.517 1.23 1.07 1.638.553.393 1.245.59 2.075.59 1.034 0 1.806-.313 2.316-.939.524-.627.786-1.457.786-2.491 0-1.048-.262-1.849-.786-2.402-.525-.568-1.296-.852-2.316-.852-.713 0-1.318.182-1.813.546-.48.349-.83.83-1.048 1.441h-2.359v-9.196h9.611v2.185zm21.705 0h-7.317v4.347c.305-.408.757-.75 1.354-1.027a4.66 4.66 0 011.944-.415c1.223 0 2.214.262 2.971.786.772.524 1.318 1.187 1.638 1.988.335.801.503 1.646.503 2.534 0 1.077-.212 2.039-.634 2.883a4.558 4.558 0 01-1.857 1.966c-.815.481-1.82.721-3.014.721-1.587 0-2.862-.393-3.823-1.18-.961-.786-1.536-1.827-1.725-3.123h2.424c.16.684.517 1.23 1.071 1.638.553.393 1.245.59 2.075.59 1.034 0 1.805-.313 2.315-.939.524-.627.787-1.457.787-2.491 0-1.048-.263-1.849-.787-2.402-.524-.568-1.296-.852-2.315-.852-.714 0-1.318.182-1.813.546-.481.349-.83.83-1.049 1.441h-2.359v-9.196h9.611v2.185zm11.439 5.613c0-2.519.423-4.485 1.267-5.897.859-1.427 2.33-2.141 4.413-2.141 2.082 0 3.546.714 4.39 2.141.859 1.412 1.289 3.378 1.289 5.897 0 2.549-.43 4.544-1.289 5.986-.844 1.427-2.308 2.14-4.39 2.14-2.083 0-3.554-.713-4.413-2.14-.844-1.442-1.267-3.437-1.267-5.986zm8.913 0c0-1.179-.081-2.177-.241-2.992-.145-.816-.451-1.478-.917-1.988-.466-.524-1.158-.786-2.075-.786-.918 0-1.609.262-2.075.786-.466.51-.78 1.172-.94 1.988-.145.815-.218 1.813-.218 2.992 0 1.224.073 2.25.218 3.08.146.83.452 1.5.918 2.01.48.51 1.179.765 2.097.765.917 0 1.609-.255 2.075-.765.48-.51.794-1.18.939-2.01.146-.83.219-1.856.219-3.08z" fill="#fff"/><rect x="127.911" y="102.766" width="47.328" height="31.552" rx="6.068" fill="#fff" fill-opacity=".39"/><path stroke="#fff" stroke-opacity=".7" stroke-width="1.214" d="M135.799 102.766v31.552m10.922-31.552v31.552m10.922-31.552v31.552m9.709-31.552v31.552"/><path d="M133.399 269.77a5.46 5.46 0 01-.728 2.738c-.466.854-1.165 1.572-2.097 2.155-.913.582-2 .932-3.262 1.048v2.359h-1.893v-2.359c-1.826-.174-3.301-.747-4.427-1.718-1.127-.971-1.69-2.252-1.69-3.845h3.554c.058.758.301 1.389.728 1.894.427.485 1.039.796 1.835.932v-6.408c-1.301-.33-2.359-.66-3.175-.99a5.326 5.326 0 01-2.097-1.631c-.563-.738-.845-1.748-.845-3.029 0-1.612.563-2.942 1.69-3.99 1.126-1.068 2.601-1.69 4.427-1.864v-2.359h1.893v2.359c1.708.155 3.077.699 4.106 1.631 1.049.912 1.641 2.174 1.777 3.786h-3.553a2.784 2.784 0 00-.699-1.602c-.408-.485-.952-.815-1.631-.99v6.291c1.301.311 2.359.641 3.174.99.816.33 1.505.864 2.068 1.602.563.718.845 1.718.845 3zm-10.718-9.029c0 .796.233 1.418.699 1.864.485.447 1.165.806 2.039 1.078v-5.884c-.835.098-1.505.399-2.01.903-.485.505-.728 1.185-.728 2.039zm4.631 12.233c.854-.136 1.524-.476 2.009-1.02.486-.563.729-1.233.729-2.009 0-.777-.243-1.379-.729-1.806-.466-.447-1.135-.806-2.009-1.078v5.913zm20.836-15.641v-3.029h6.058v21.233h-3.35v-18.204h-2.708zm22.793 13.689c1.864-1.611 3.33-2.932 4.398-3.961 1.087-1.048 1.99-2.136 2.709-3.262.718-1.126 1.077-2.252 1.077-3.378 0-1.165-.281-2.078-.844-2.738-.544-.66-1.408-.99-2.593-.99-1.145 0-2.038.369-2.679 1.106-.621.719-.952 1.69-.99 2.913h-3.204c.058-2.214.718-3.903 1.98-5.068 1.282-1.184 2.903-1.776 4.864-1.776 2.117 0 3.767.582 4.952 1.747 1.203 1.165 1.805 2.718 1.805 4.66 0 1.398-.359 2.748-1.077 4.048a16.064 16.064 0 01-2.534 3.466c-.971 1.01-2.214 2.185-3.728 3.524l-1.311 1.165h9.233v2.767h-14.155v-2.417l2.097-1.806zm29.391.524l-3.524 8.039h-2.155l2.068-8.039h3.611zm2.057-.436v-2.505l9.786-14.038h4.019v13.659h2.709v2.884h-2.709v4.427h-3.262v-4.427h-10.543zm10.689-13.165l-6.874 10.281h6.874v-10.281zm22.265-.786h-9.757v5.796c.408-.544 1.01-1 1.806-1.369a6.212 6.212 0 012.592-.554c1.631 0 2.951.35 3.961 1.049 1.029.699 1.757 1.582 2.184 2.65a8.662 8.662 0 01.67 3.379c0 1.437-.282 2.718-.845 3.844-.543 1.107-1.368 1.981-2.475 2.621-1.088.641-2.427.962-4.019.962-2.117 0-3.816-.525-5.097-1.573-1.282-1.049-2.049-2.437-2.301-4.165h3.233c.213.913.689 1.641 1.427 2.184.738.525 1.66.787 2.767.787 1.378 0 2.407-.418 3.087-1.253.699-.835 1.048-1.941 1.048-3.32 0-1.398-.349-2.466-1.048-3.204-.699-.757-1.728-1.136-3.087-1.136-.952 0-1.758.243-2.418.729-.64.466-1.106 1.106-1.398 1.922h-3.145v-12.262h12.815v2.913zm16.329 2.068c-.213-.894-.602-1.563-1.165-2.01-.563-.447-1.349-.67-2.359-.67-1.534 0-2.679.592-3.437 1.777-.757 1.165-1.155 3.106-1.194 5.825.505-.855 1.243-1.515 2.214-1.981a7.173 7.173 0 013.145-.699c1.282 0 2.408.282 3.379.845.99.544 1.757 1.34 2.301 2.388.563 1.049.844 2.301.844 3.757 0 1.359-.272 2.573-.815 3.641a5.94 5.94 0 01-2.359 2.534c-1.049.602-2.311.903-3.787.903-1.999 0-3.572-.437-4.718-1.311-1.126-.893-1.922-2.146-2.388-3.757-.447-1.612-.67-3.621-.67-6.029 0-7.107 2.505-10.66 7.514-10.66 1.942 0 3.466.524 4.573 1.573 1.126 1.048 1.786 2.34 1.98 3.874h-3.058zm-3.524 5.038c-1.184 0-2.194.359-3.029 1.078-.815.699-1.223 1.718-1.223 3.058 0 1.34.379 2.408 1.136 3.204.776.776 1.854 1.165 3.233 1.165 1.223 0 2.184-.379 2.883-1.136.718-.757 1.078-1.767 1.078-3.029 0-1.32-.35-2.369-1.049-3.146-.679-.796-1.689-1.194-3.029-1.194zm107.315-6.092c1.246 0 2.339.243 3.279.73a5.146 5.146 0 012.192 2.09c.521.895.781 1.937.781 3.126 0 1.189-.26 2.231-.781 3.126-.51.883-1.241 1.569-2.192 2.056-.94.487-2.033.73-3.279.73h-4.145v-11.858h4.145zm-.085 9.836c1.246 0 2.209-.339 2.888-1.019.68-.679 1.02-1.637 1.02-2.871 0-1.235-.34-2.197-1.02-2.888-.679-.703-1.642-1.054-2.888-1.054h-1.682v7.832h1.682zm18.736-2.888c0 .34-.022.646-.068.918h-6.881c.057.679.295 1.212.714 1.597s.934.577 1.546.577c.883 0 1.512-.379 1.886-1.138h2.565a4.334 4.334 0 01-1.563 2.243c-.77.577-1.716.866-2.837.866-.906 0-1.722-.198-2.446-.594a4.372 4.372 0 01-1.682-1.716c-.397-.737-.595-1.586-.595-2.549 0-.974.198-1.829.595-2.565a4.137 4.137 0 011.665-1.699c.713-.397 1.534-.595 2.463-.595.895 0 1.693.193 2.396.578a3.99 3.99 0 011.648 1.648c.396.702.594 1.512.594 2.429zm-2.463-.679c-.012-.612-.233-1.099-.663-1.461-.43-.374-.957-.561-1.58-.561-.589 0-1.087.181-1.495.544-.396.351-.64.843-.731 1.478h4.469zm8.447-2.447a3.411 3.411 0 011.257-1.104c.544-.283 1.161-.425 1.852-.425.804 0 1.529.198 2.174.595.657.396 1.173.962 1.546 1.699.386.725.578 1.568.578 2.531 0 .963-.192 1.818-.578 2.566-.373.736-.889 1.308-1.546 1.716a3.99 3.99 0 01-2.174.611c-.702 0-1.32-.136-1.852-.408a3.674 3.674 0 01-1.257-1.087v1.342h-2.379v-12.572h2.379v4.536zm4.978 3.296c0-.566-.119-1.053-.357-1.461a2.321 2.321 0 00-.918-.951 2.398 2.398 0 00-1.223-.323c-.43 0-.838.113-1.223.34-.374.215-.68.532-.918.951-.226.419-.339.912-.339 1.478s.113 1.059.339 1.478c.238.419.544.742.918.969.385.215.793.322 1.223.322.442 0 .85-.113 1.223-.339.386-.227.691-.55.918-.969.238-.419.357-.917.357-1.495zm7.233-5.793c-.419 0-.771-.131-1.054-.391a1.361 1.361 0 01-.407-1.002c0-.397.135-.725.407-.986a1.463 1.463 0 011.054-.408c.419 0 .764.136 1.036.408.283.261.425.589.425.986 0 .396-.142.73-.425 1.002-.272.26-.617.391-1.036.391zm1.172 1.121v9.412h-2.379v-9.412h2.379zm6.988 1.954v4.553c0 .317.074.549.221.697.159.136.419.203.782.203h1.104v2.005h-1.495c-2.005 0-3.007-.974-3.007-2.922v-4.536h-1.122v-1.954h1.122v-2.328h2.395v2.328h2.107v1.954h-2.107zm10.992 2.752c0-.974.198-1.823.595-2.548a4.165 4.165 0 011.648-1.699c.702-.408 1.506-.612 2.412-.612 1.167 0 2.129.295 2.888.884.771.577 1.286 1.393 1.546 2.446h-2.565a1.809 1.809 0 00-.697-.951c-.317-.238-.713-.357-1.189-.357-.679 0-1.217.249-1.614.747-.396.487-.595 1.184-.595 2.09 0 .895.199 1.591.595 2.09.397.487.935.73 1.614.73.963 0 1.591-.43 1.886-1.291h2.565c-.26 1.02-.775 1.829-1.546 2.43-.77.6-1.733.9-2.888.9-.906 0-1.71-.198-2.412-.594a4.323 4.323 0 01-1.648-1.699c-.397-.737-.595-1.592-.595-2.566zm12.089-.034c0-.951.187-1.795.561-2.531.385-.737.9-1.303 1.546-1.699a4.154 4.154 0 012.192-.595c.702 0 1.313.142 1.834.425.533.283.957.64 1.275 1.07v-1.342h2.395v9.412h-2.395v-1.376c-.306.442-.731.81-1.275 1.104-.532.284-1.149.425-1.851.425a4.05 4.05 0 01-2.175-.611c-.646-.408-1.161-.98-1.546-1.716-.374-.748-.561-1.603-.561-2.566zm7.408.034c0-.578-.114-1.07-.34-1.478a2.328 2.328 0 00-.918-.951 2.399 2.399 0 00-1.24-.34 2.4 2.4 0 00-1.223.323c-.374.215-.68.532-.918.951-.226.408-.339.895-.339 1.461 0 .566.113 1.065.339 1.495.238.419.544.742.918.969a2.38 2.38 0 001.223.339c.442 0 .855-.107 1.24-.322a2.48 2.48 0 00.918-.952c.226-.419.34-.917.34-1.495zm8.966-3.245a3.36 3.36 0 011.189-1.172c.498-.283 1.065-.425 1.699-.425v2.498h-.629c-.747 0-1.314.175-1.699.526-.374.351-.56.963-.56 1.835v4.689h-2.379v-9.412h2.379v1.461zm5.747 3.211c0-.951.187-1.795.561-2.531.385-.737.906-1.303 1.563-1.699a4.153 4.153 0 012.191-.595c.612 0 1.195.136 1.75.408.555.26.997.611 1.326 1.053v-4.468h2.412v12.572h-2.412v-1.393a3.226 3.226 0 01-1.241 1.121c-.532.284-1.149.425-1.852.425a4.049 4.049 0 01-2.174-.611c-.657-.408-1.178-.98-1.563-1.716-.374-.748-.561-1.603-.561-2.566zm7.408.034c0-.578-.114-1.07-.34-1.478a2.328 2.328 0 00-.918-.951 2.399 2.399 0 00-1.24-.34 2.4 2.4 0 00-1.223.323c-.374.215-.68.532-.918.951-.226.408-.339.895-.339 1.461 0 .566.113 1.065.339 1.495.238.419.544.742.918.969a2.38 2.38 0 001.223.339c.442 0 .855-.107 1.24-.322a2.48 2.48 0 00.918-.952c.226-.419.34-.917.34-1.495z" fill="#fff"/><path d="M371.541 107.039l2.359 15.436 7.776-15.436h5.301l-10.863 20.445h-6.233l-3.641-20.445h5.301zm25.702 0l-3.612 20.445h-4.98l3.611-20.445h4.981zm11.327 20.649c-2.213 0-4.019-.475-5.417-1.427-1.379-.971-2.068-2.34-2.068-4.107 0-.174.02-.436.058-.786h5.185c-.059.738.116 1.32.524 1.748.408.427 1.029.64 1.864.64.757 0 1.349-.165 1.776-.495.447-.33.67-.796.67-1.398 0-.621-.281-1.126-.844-1.514-.544-.389-1.398-.825-2.563-1.311-1.126-.466-2.049-.903-2.767-1.311a6.39 6.39 0 01-1.835-1.718c-.524-.718-.786-1.621-.786-2.709-.02-1.339.31-2.504.99-3.495.679-.99 1.621-1.747 2.825-2.271 1.204-.525 2.582-.787 4.136-.787 1.398 0 2.64.224 3.728.67 1.087.427 1.932 1.058 2.534 1.893.602.816.902 1.787.902 2.913 0 .291-.009.505-.029.641h-5.3c.019-.078.029-.195.029-.35 0-.544-.194-.98-.583-1.311-.369-.349-.883-.524-1.543-.524-.699 0-1.272.175-1.719.524-.427.331-.641.787-.641 1.369 0 .583.272 1.078.816 1.486.544.388 1.388.844 2.534 1.369 1.145.524 2.077 1.009 2.796 1.456a6.178 6.178 0 011.893 1.806c.524.737.786 1.65.786 2.737 0 1.204-.32 2.282-.961 3.233-.641.952-1.563 1.699-2.767 2.243-1.203.524-2.611.786-4.223.786zm26.564-3.815h-7.63l-1.864 3.611h-5.214l11.009-20.445h5.767l3.786 20.445h-5.271l-.583-3.611zm-.582-3.786l-1.194-7.573-3.903 7.573h5.097z" fill="#fff" fill-opacity=".7"/></g></g><defs><linearGradient id="paint2_linear" x1="1569.6" y1="90.63" x2="1569.6" y2="134.318" gradientUnits="userSpaceOnUse"><stop offset=".466" stop-color="#fff"/><stop offset=".549" stop-color="#EA2828" stop-opacity=".39"/></linearGradient><linearGradient id="paint4_linear" x1="1006.88" y1="79.709" x2="1006.88" y2="287.224" gradientUnits="userSpaceOnUse"><stop stop-opacity=".18"/><stop offset=".409" stop-color="#3CBCC3"/><stop offset="1" stop-color="#F800E0" stop-opacity=".52"/></linearGradient><linearGradient id="paint5_linear" x1="1131.77" y1="118.542" x2="1131.77" y2="287.224" gradientUnits="userSpaceOnUse"><stop stop-color="#fff" stop-opacity="0"/><stop offset=".315" stop-color="#fff"/><stop offset=".701" stop-opacity=".42"/></linearGradient><linearGradient id="paint7_linear" x1="218.082" y1="79.709" x2="218.082" y2="287.224" gradientUnits="userSpaceOnUse"><stop stop-opacity=".18"/><stop offset=".409" stop-color="#3CBCC3"/><stop offset="1" stop-color="#F800E0" stop-opacity=".52"/></linearGradient><linearGradient id="paint8_linear" x1="342.972" y1="118.542" x2="342.972" y2="287.224" gradientUnits="userSpaceOnUse"><stop stop-color="#fff" stop-opacity="0"/><stop offset=".315" stop-color="#fff"/><stop offset=".701" stop-opacity=".42"/></linearGradient><filter id="filter0_d" x="0" y="0" width="1774.55" height="453" filterUnits="userSpaceOnUse" color-interpolation-filters="sRGB"><feFlood flood-opacity="0" result="BackgroundImageFix"/><feColorMatrix in="SourceAlpha" values="0 0 0 0 0 0 0 0 0 0 0 0 0 0 0 0 0 0 127 0"/><feMorphology radius="10" operator="dilate" in="SourceAlpha" result="effect1_dropShadow"/><feOffset dx="10" dy="40"/><feGaussianBlur stdDeviation="50"/><feColorMatrix values="0 0 0 0 0.235133 0 0 0 0 0.387863 0 0 0 0 0.567155 0 0 0 0.25 0"/><feBlend in2="BackgroundImageFix" result="effect1_dropShadow"/><feBlend in="SourceGraphic" in2="effect1_dropShadow" result="shape"/></filter><filter id="filter1_d" x="394.89" y="21.458" width="565.51" height="427.167" filterUnits="userSpaceOnUse" color-interpolation-filters="sRGB"><feFlood flood-opacity="0" result="BackgroundImageFix"/><feColorMatrix in="SourceAlpha" values="0 0 0 0 0 0 0 0 0 0 0 0 0 0 0 0 0 0 127 0"/><feOffset dy="48.542"/><feGaussianBlur stdDeviation="48.542"/><feColorMatrix values="0 0 0 0 0.235133 0 0 0 0 0.387863 0 0 0 0 0.567155 0 0 0 0.25 0"/><feBlend in2="BackgroundImageFix" result="effect1_dropShadow"/><feBlend in="SourceGraphic" in2="effect1_dropShadow" result="shape"/></filter><filter id="filter2_d" x="1186.12" y="21.458" width="565.51" height="427.167" filterUnits="userSpaceOnUse" color-interpolation-filters="sRGB"><feFlood flood-opacity="0" result="BackgroundImageFix"/><feColorMatrix in="SourceAlpha" values="0 0 0 0 0 0 0 0 0 0 0 0 0 0 0 0 0 0 127 0"/><feOffset dy="48.542"/><feGaussianBlur stdDeviation="48.542"/><feColorMatrix values="0 0 0 0 0.235133 0 0 0 0 0.387863 0 0 0 0 0.567155 0 0 0 0.25 0"/><feBlend in2="BackgroundImageFix" result="effect1_dropShadow"/><feBlend in="SourceGraphic" in2="effect1_dropShadow" result="shape"/></filter><filter id="filter3_d" x="791.719" y="21.458" width="565.51" height="427.167" filterUnits="userSpaceOnUse" color-interpolation-filters="sRGB"><feFlood flood-opacity="0" result="BackgroundImageFix"/><feColorMatrix in="SourceAlpha" values="0 0 0 0 0 0 0 0 0 0 0 0 0 0 0 0 0 0 127 0"/><feOffset dy="48.542"/><feGaussianBlur stdDeviation="48.542"/><feColorMatrix values="0 0 0 0 0.235133 0 0 0 0 0.387863 0 0 0 0 0.567155 0 0 0 0.25 0"/><feBlend in2="BackgroundImageFix" result="effect1_dropShadow"/><feBlend in="SourceGraphic" in2="effect1_dropShadow" result="shape"/></filter><filter id="filter4_d" x="2.917" y="21.458" width="565.51" height="427.167" filterUnits="userSpaceOnUse" color-interpolation-filters="sRGB"><feFlood flood-opacity="0" result="BackgroundImageFix"/><feColorMatrix in="SourceAlpha" values="0 0 0 0 0 0 0 0 0 0 0 0 0 0 0 0 0 0 127 0"/><feOffset dy="48.542"/><feGaussianBlur stdDeviation="48.542"/><feColorMatrix values="0 0 0 0 0.235133 0 0 0 0 0.387863 0 0 0 0 0.567155 0 0 0 0.25 0"/><feBlend in2="BackgroundImageFix" result="effect1_dropShadow"/><feBlend in="SourceGraphic" in2="effect1_dropShadow" result="shape"/></filter><radialGradient id="paint0_angular" cx="0" cy="0" r="1" gradientUnits="userSpaceOnUse" gradientTransform="matrix(0 116.5 -185.672 0 677.646 186.5)"><stop stop-color="#4ABBE1"/><stop offset=".773" stop-color="#4CBBE0" stop-opacity=".37"/></radialGradient><radialGradient id="paint1_angular" cx="0" cy="0" r="1" gradientUnits="userSpaceOnUse" gradientTransform="matrix(0 116.5 -143.198 0 1468.88 186.5)"><stop offset=".253" stop-color="#EE6C87"/><stop offset=".727" stop-color="#D9E1E9"/><stop offset="1" stop-color="#FFB938" stop-opacity=".3"/></radialGradient><radialGradient id="paint3_angular" cx="0" cy="0" r="1" gradientUnits="userSpaceOnUse" gradientTransform="matrix(0 116.5 -143.198 0 1074.47 186.5)"><stop offset=".461" stop-color="#D9E1E9"/><stop offset=".987" stop-color="#7530FF"/></radialGradient><radialGradient id="paint6_angular" cx="0" cy="0" r="1" gradientUnits="userSpaceOnUse" gradientTransform="rotate(62.403 -62.118 312.727) scale(90.3763 111.088)"><stop offset=".424" stop-color="#F800E0" stop-opacity=".73"/><stop offset=".674" stop-color="#30E6FF"/></radialGradient></defs></svg>